<svg width="501" height="340" fill="none" xmlns="http://www.w3.org/2000/svg"><path d="M498.5 217.6c-.2-3.9-.8-7.7-1.6-11.5.7-.5 1.1-1.4.8-2.5l-.6-2.1c-4.2-14.7-11.2-28.8-26.6-34.2-1.2-.4-2.8.5-3.1 1.8-.7 3.2-1.5 6.4-2.6 9.5-.1.3-.3.7-.4 1.1-.6 0-1.2.2-1.7.7-2.5 2.3-4.7 2.3-6.6-.1-.4-.5-.8-.8-1.3-.9.5-3-4.2-4.3-4.8-1.2-1.4 6.8-2.8 13.7-4.3 20.5-.6 3-.8 7.1-2.4 9.8-.7 1.3-1.7 1.4-1.6 3.2.1 1.8 2.1 3.2 3.8 2.2 1-.6 1.9-1.2 2.9-1.7.4.2 1 .2 1.6-.1l.6-.3.1-.1c2.8-1.3 4.9-3.2 6.3-5.8.1 0 .1 0 .2.1.4.1.9.3 1.3.4 1.3.7 2.4 1 3.9 1.1 6.7 1.8 13.3 1.7 20.3 1.6-.3 2.5-.7 5-1.2 7.5-.4 1.9-1 5.6-2.3 7.5-.2.1-.5.3-.7.5l-.1.1c-.1 0-.1.1-.1.2-.3.2-.5.5-.8.7-.8 1-.9 1.9-.4 3 .1.1.1.2.1.3.8 1.8 3.4 1.4 4.3 0 .1-.1.1-.2.2-.3 2.8 1.8 5.1.5 7.5-.5.1 0 .3.1.5.1 2.3.4 5.7.8 7.6-1 2.3-2.1 1.4-7.1 1.2-9.6zM293.5 121.6c-2.5-2-4.7-4.3-7.7-5.8-3.6-1.7-7.6-2.9-11.3-4.3l-1.2-.3c-.4-.7-1.1-1.3-2.1-1.3-.7 0-1.4 0-2 .2-.6-.2-1.2-.3-1.9-.3-.6-.1-1.3-.2-1.9-.4-.3-.9-1.1-1.5-2.2-1.5h-6.1c-.9 0-1.6.5-2 1.2h-.6c-9 .5-17.5 2.9-25.8 6.1l-6 1.8c-.7-.8-1.8-1.2-2.9-.3-.5.3-.9.6-1.3 1-.8-.9-2.3-1.2-3.6-.2l-1.5 1.2c-.4-1-2-1.4-2.8-.3-2.4 3.4-12.2 2.5-16.2 4-3.2 1.1-5.8 3-7.6 5.6-1.2.4-2.3 1-3.3 1.8-9.5 7.9-16.3 18.9-22.1 29.6-2.9 5.3-5.5 11.1-4.3 17.3 1.1 6 5.2 11 9.3 15.3 2.4 2.4 7.7 7.2 13.2 10.2.2.4.5.7.9 1 3.7 2.2 7.3 4.3 11 6.5 2.2 2.3 4.7 3.8 7.9 4.6 1.1.3 2-.2 2.6-.9 1.2 0 2.4-1.1 2.5-2.3.2.1.5.2.7.2 2.9.9 4-3 1.9-4.6l-.3-.3c.1-.4 0-.8-.1-1.2.5.4.9.8 1.4 1.2 1 .8 2.1.8 2.9.3.9.3 1.8.2 2.5-.3 2 1.5 4.9-1.7 3-4-3.3-4-8.3-4.6-12.6-6.9l-3-2.1c-.5-.4-1.1-.4-1.6-.3-1.8-1.3-3.5-2.5-5.3-3.7-.2-.1-.3-.2-.5-.3-.3-.8-.7-1.5-1.1-2.2 1.5-.9 2.7-2.2 3.2-4 .5.1 1 0 1.5-.2.2.2.4.3.6.5.7.4 1.3.8 2.1 1.1 1.3.5 3 .9 4.3.1 1.1-.7 1.5-1.8 1.8-3.1.3-1.6.6-3.3.3-4.9-.7-3.4-3.8-3.7-6.7-3.6-.6 0-1.2.2-1.6.4 0 0-.1 0-.1-.1-.6-.4-1.1-.5-1.6-.4.2-4.1.8-8.2 1.7-12.2.3-1.5.2-2.9-.2-4.1.4-2 .7-4.1 1.1-6.1.2-1.3.2-2.5 0-3.5.9-1.3 1.7-2.7 2.5-4.1 1.4-1.7 2.7-3.5 4.1-5.2.4-.3.8-.6 1.1-1.1 1.2-1.6 2.4-3.2 3.5-4.8.4-.6.7-1.3.7-1.9.9-.6 1.8-1.3 2.7-2 .2 0 .4-.1.6-.2 5.4-2.7 10.8-5.3 16.4-7.5 6.8-1.9 13.7-3.4 20.7-4.2 1.9 4.2 8.8 5 11.9 8.4.2.3.4.5.7.8l.3.3c1.2 2.2 3 3.8 5.2 5.8.1.1.3.2.4.3-6.5 1.6-13.1 3.1-19.6 4.5-7.9 1.7-6.6 14.7 1.2 14.8 1.2 1.4 3 2.3 5.4 2.3 8.7.1 17.2 2.9 25.9 1.6 7.2-1.1 14.4-5 17.6-11.9 3-7.6-.6-16.3-6.6-21.1zM116.8 258.2c-.7-3.2-1.3-6.4-1.6-9.7-.4-3.5-3.5-5.5-6.8-3.9-4.9 2.4-13.8 5.4-19.2 3.1-.2-.6-.2-1.5-.2-2.6 0-4.6.4-9.1 2.5-13.3 1.5-2.9-.3-6.9-3.9-6.8-4.7.1-9.3 0-13.2-2.6-.5-.4-1-.8-1.5-1.3-.2-.2-.5-.4-.8-.5-.6-1.5-.5-3.3-.6-5.3-.1-3.5-.2-7-.1-10.5v-.4c1.1-.3 1.6-1.8.7-2.7-.4-.4-1.1-.6-1.7-.4-.2 0-.3.1-.5.2-1.6-1.3-4.1-1.4-5.8-.2-1.8-1.2-3.6-2.1-5.7-2.7-.3-.1-.7 0-1 .1-.5-.5-.9-1.1-1.4-1.6-1.2-1.3-3.2.4-2.4 1.8 1.3 2.3 1.1 5.1 1.4 7.7.2 2.2.5 4.5.9 6.7.1.5.3.8.7 1-.1 3.3-.3 6.6-.5 9.8-.3 4.7-1.4 12.4-6.9 13.9-3.4.9-3.8 4.6-2.4 6.9v.4c.2 7.9 2.4 16 3.8 23.8l4.5 24.6c.5 2.5 3.3 3.6 5.5 3.1 3.9-.8 7.7-1.5 11.6-2.2 2.7 1.5 6.7.3 6.8-3.7.1-4 .4-8.2.4-12.3 12.1-2.6 22-12.9 34.1-15.1 2.7-.2 3.8-3.2 3.3-5.3z" fill="#fff"/><path d="M487.1 229.5s5.3 31.7-20.2 35.5c-4.8.7-27.6 4.8-28.1 7s0 31.2 0 31.2-6.9 6.3-23.6 4.9l-3.2-8.5s-9.5 9-21.1 7.3c-11.6-1.7-5.9-21-5.9-21l16.3-27.9s21.8 1.4 22.7-.5c.9-1.9.9-7.5-2.7-14.5 0 0 8.1-5 16.3-8.2 8.2-3.2 8.6-2.5 15-1.6 6.4.9 17.6 1.2 22.6-4.5l11.9.8z" fill="#2BADAD"/><path d="M471.1 145.6s-8.1-4.8-13.7-4.8c-.6 0-1.2.1-1.7.3-.3-.5-.4-1.2-.6-1.8-.1-.6-.8-.6-1.1-.4-.5-.5-1.5-.1-1.3.7.4 1.5-.1 3.2-1.4 4.2-3.4 2.8-7.7 6.8-15.7 8.4 2.8 3.8 4.2 2.5 5.2 2.5s-1.3 5 3.2 9.6 10.3 2.9 10.3 2.9l-.3 6.9c1.7-2.5 11.9-6.8 11.9-6.8l2.6-.5.8-8.7s.4-.4 3.7-3.2c3.2-2.6-1.9-9.3-1.9-9.3zM380.6 315.2s.1 6.1-6.3 7.3c-6.4 1.2-8.6 2.1-8.6 2.1s2.6-7.3 2.5-12.2l6.1-10.2 6.3 5v8zM415.2 307.9l3.3 11.1s8.1 5.1 8.6 12.2c0 0 1.2-9.7 6.1-12.7 4.9-3 3.1-12.9 1.6-13.3 0 0-1.8 2.2-19.6 2.7z" fill="#A34942"/><path d="M451.9 174c-1.6-1.2-2.8-2.7-4.3-4-.8-.7-1.7-1.1-2.8-.9-2.8.6-3.5 4.5-3.4 6.9.2 2.4 1.3 4.4 4 4.2 1.2-.1 2.4-.8 3.3-1.6 1-.8 2.4-1.9 2.9-3.2.6 0 .9-.9.3-1.4zM453.1 175s6.3-5.7 8.9-6.7c2.6-1 1.4 15.1-2.6 13.5-4-1.6-6.3-6.8-6.3-6.8z" fill="#F45D48"/><path d="M443.7 201.4l-12.9-7.8s-9.1 9.8-14.1 9.8-7.3-1.8-9.7-12c-2.4-10.2-10.2-16.3-11.7-15.1-1.5 1.2 3 9.8 1.9 10.7-1.1.9-5.9.3-8.1-4.2-2.1-4.5-3.6-7.5-3.6-7.5s-3.3 2.3-1.8 6.3c0 0-7.8 5.7-1 14.1.8 1 3.6 2.1 5 6.8 1.4 4.7 1.9 9.1 1.9 9.1s4.3 3.5 5.7 5.4c1.4 1.9 3.2 7.6 9.4 8.4 0 0 .4 3.4 4 2.7 0 0 .8 3 3.9 2.5 0 0 3.7 1 6.1 0 2.4-1 3.8-2.3 5-2.2 1.2.1 19.6 3.2 19.6 3.2s16.9 3.8 23.7 1.4c6.7-2.3 10-6.6 10.9-9 .9-2.4-2-13.1-11.2-14.4-9.2-1.3-9.7-3.3-9.7-3.3s-.5 8-15.2 7.9l1.9-12.8z" fill="#A34942"/><path d="M293.3 333.1c-2.8 0-5-2.2-5-5V256h10v72.1c0 2.7-2.2 5-5 5zM385.7 333.1c-2.8 0-5-2.2-5-5V256h10v72.1c0 2.7-2.2 5-5 5z" fill="#88D8D8"/><path d="M417 257.8c0-5.6-.8-13.8-10.6-16.2-10.3-2.6-20.1.8-20.2-9.3 0-6.3 1.5-23.4-8.5-23.4s-14.3-.5-14.3-.5c0-7.6-28.8-8.2-34.4-17.5-5.6-9.3 6.9-18.5 13.8-24.3 6.9-5.8 10.5-28.3-13.4-28.1-6.8.1-15.1 1.6-23.2 3.6-2.2 1.3-4.2 2.8-6.7 3.5-.2 0-.4 0-.5-.1-1.2 2-2.8 3.9-5 5.5-4.5 3.3-9.9 4.4-15.4 4.5 1.1 2.8.6 6.3.3 9.1-.5 4.8-1.4 9.4-2.3 14.1-.1.3-.5.6-.8.5-4.8-1.6-9.2-.4-10.4 4.9-.4 1.7-.5 3.7 0 5.4 1.2 3.4 5.1 3.9 7.7 1.7.5-.4 1.1-.1 1.1.5.5 5.5 1.5 10.8 3 16.1.7 2.4 1.3 4.8 2 7.2.1.2.2.6.2 1 2 3.6 3.6 6.7 4.3 8.9 3 10.2-2.4 32.7-2.4 32.7l135.7.2z" fill="#88D8D8"/><path d="M286.3 246.5c.1-.5.1-1.1.2-1.7 2.2-21.3-12.6-33.8-21.1-40.1-6.2-4.6-13.1-11-10.1-20.2s8.5-8.2 11.3-23.2c.4-2.1.5-4.4.4-6.8-.9-.1-1.8-.3-2.8-.3-3.2-.3-6.2-.4-9.4-1.1-5.5-1.1-10.4-3.1-12.2-8.8-1-3.3-2.1-7.9 2.3-8.8 2.6-.6 5.3.5 7.9-.4 2.9-.9 5.8-2.2 8.8-2.7-3.2-7.6-3.9-11.6-10.3-15.3-8.5-4.8-19.2-2.9-30.3 4.5-28.2 18.8-24.6 50-23.7 50.7.9.7 3-2.1 7.5.2 4.5 2.3 2 8.5-.1 12.1-2.1 3.5-8.1-1.3-8.1-1.3-.2.8-1.2 2.8-2.5 5.4 1.8 1.6 5.3 3 6.8 3.9 3.6 2.3 7.5 4.1 11 6.5 4 2.7 11.4 6 8.1 12.1-3.1 5.7-12.5 6.1-18 4.8-4-1-7-3.8-10.9-5-1.4-.5-2.9-.7-4.2-1.5-1.1-.7-2.1-1.7-3-2.7-2.5 2.8-8.5 10.2-12.9 24.9-6.5 21.7.7 60.4 49 62.8 29.1 1.4 46.2-7.5 55.8-20.3.3 0 .6 0 .8-.3 1.3-1.7 2.4-3.5 3.5-5.3.2 0 .4-.1.5-.3.8-1.4 1.4-2.9 2-4.4.2 0 .5-.2.6-.5 1.1-2.8 1.8-5.7 2.2-8.7.7-2.4 1.2-4.9 1.3-7.5-.1-.4-.2-.6-.4-.7z" fill="#F45D48"/><path d="M202 205.8c5.5-5.6 13.6-3.7 16.9-1.8 3.3 1.8 13.7 4.8 14.6 5.2.9.4.3 2.6-1.8 2.8-2.1.2-3.2 0-3.2 0s3.5 2.5 3.3 5.3c-.1 2.8-1.6 4.9-1.6 4.9s1.4 5.5-4.9 5.1c0 0-3.3 4.6-5.5 1.6-.8-1.1-.7-2.7-5-5s-17-9-17-9 .7-5.5 4.2-9.1zM240.6 136.7c9.4-1.9 13.2 2 14.2 5.5.9 3.4-.5 10.8-.5 10.8s-11.2-2.8-18.6 2.8c0 0-2.9.8-3.8-2.1 0 0-6.2-1.1-5.7-5.2 0 0 4.9-4.2 8.3-6.1.5-.3-5.9-1.7-6.1-2.7-.1-1 12.2-3 12.2-3zM237.6 94.1c-1.6-1.8-6.4 1.4-6.4 1.4v-.3c-.8.9-1.8 1.8-3 2.2-4.2 1.4-4.8-8.4-4.8-8.4-6.3 4.7-11.4 5.3-15.2 4.4-.6 1.4-1.2 2.7-1.9 3.9-3.6 6.4-9 9.2-7.9 9.8 1.1.6 4.5-.5 4.5-.5s1.9 12.2 12.5 10.9c10.6-1.3 14.4-11 14.4-11s11.6-8.2 7.8-12.4z" fill="#DBAFAB"/><path d="M223.5 89.1s.6 9.8 4.8 8.4c1.2-.4 2.2-1.2 3-2.2.3-2 2-14.1-9-14.3-8.5-.1-11.3 6.6-14 12.5 3.8.9 8.9.3 15.2-4.4z" fill="#F45D48"/><path d="M225.6 312.4l1.2 10.8s11.7-.7 14.8-1.8v-10.7l-16 1.7zM139.9 297c-.2.1-5.8 13.4-5.8 13.4s8.7 9.1 10.9 7.2c2.2-1.9 6.5-9.8 6.5-9.8L139.9 297z" fill="#DBAFAB"/><path d="M99.7 100.3c8 1 14.2 16.2 8.8 25.7-5.3 9.5-7.3.6-7.2-2.6.1-3.2 1.6-4.3 1.6-4.3s-9.3 1.5-8.8-11.3c0 0-7.2.9-8.4 1.4-1.2.4-7.5-.9-8.3-3.7-.8-2.8-.4-6.5 2.2-6.8 2.6-.3 7 3.1 9.1 2.8 2.2-.4 11-1.2 11-1.2zM139.5 198.4c0-2-.4-4.7-1.4-6.2-.2.1-.5.1-.7 0-.1-.1-.2-.1-.4-.1-.6 0-.8-.7-.5-1-.3 0-.6 0-1 .1-.3.1-.6.3-.7.5-.7 0-1.2-.6-1.7.4-.1.2-.1.4-.2.6-.3 1-.4 1.9-.4 2.8-1.3 1.6 1.5 4.7 3.1 5.1h.1c.1 1.6.6 3.4 2 4.2.3.2.7.1.9-.1 1.5-1.2 1.4-3.9.9-6.3zM112.9 127.3c5.1-2 8.8.6 10 5.2.5 2.2-.5 9.6 3.1 7.2 1.6-1.1 6.9-1.2 8.5.7 2.4 3 1.6 9.7-.6 12.8-2.2 3.2.7 3.9 3.2 6.3 2.3 2.2 4.3 6.7-.3 12.1-1 1.2-3.2 2.2-1.3 1.5.4-.2 6 2.1 2.5 10.9 0 0-1 .6-4.8-1.7s-6.6-4.1-6.9-7.4c-.3-3.3-.6-6.6 2.3-9.7 0 0-4.5.4-5.8-3.4-1.2-3.8 4.8-11.2 4.8-11.2s-4.2 4.5-8.2-1.5c-4-5.9-2.2-7.5-2.2-7.5s-2.5 2.3-4.5.5c-2-1.8-2.3-5-2.3-5s4.4-3.8 2.5-9.8z" fill="#A34942"/><path d="M113 129.4c-.2-1.5-1.1-1.7-1.7-2.9-.2-.4-.5-.4-.8-.4-.3-.1-.6-.1-.8.1-2.1 2.4-4.9 3.8-5.4 7-.3 2.2.8 4.6 3.4 4.5 2.5-.1 4.1-2.2 4.8-4.4.4-1.1.6-2.7.5-3.9z" fill="#2BADAD"/><path d="M98.4 133.3c4.7-2-.9 5.8 3.8 23.3 5.8 21.5 17.9 60.7 14.7 63.3-3.3 2.6-35 11.1-44-.4-1.5-1.9.3-19 .3-19l-7.7-8.3s6.2-8.7 5.3-16.2c0 0 5.3 2.8 7 2.8.3 0 9-23.4 8.7-23.5-.3-.1-7.1-8.2-5.9-13.6 1.2-5.3 17.8-8.4 17.8-8.4z" fill="#88D8D8"/><path d="M94 110c-3.6.9-12.4 3-18.8 2.4 0 0-1.3 2.4 3.3 3.7 0 0-4.3 10.8 3 15.8 7.2 5 4 5.1 4 5.1s11.6-5.8 18.1-4c0 0 2-2.3 1.7-3 0 0-1.6.2-3-1.8s-1-6.1.3-8.4c.1-.1-7.5 0-8.6-9.8zM56.1 297.6l1.3 7 18.7-2.1-.5-6.8-19.5 1.9zM113.3 243.5c-.2.2 2.5 8.8 3.4 14.9l8.8-2.7s-2.9-13.9-3.6-14.5l-8.6 2.3z" fill="#BD7B77"/><path d="M13.8 220.8c-6-.8 3.8-21.5 18.7-30.7 1.5-.9 3.6.1 3.5 3.2-.2 3.1-3.1 7.7-2 16.9.7 5.5 8 15.2 10.8 15.8 2.8.6 3-2.7 1.6-4.3C45 220.1 41 213 41 213s.6-33.7.8-43.4c.2-9.7 2.5-41.3 35.2-44.9l.6 2.5s-9.1-1-17.9 8c-8.8 9.1-10.3 27.4-8.6 43.8 1.7 16.4 11.3 48 .6 56.9-10.8 8.8-17.3-1.5-20.7-6.1-3.4-4.6-5.1-11.2-9.9-10.5-4.8.5-7.3 1.5-7.3 1.5z" fill="#F45D48"/><path d="M46.8 195.2c.1-2.1-2.2-4.2-3.7-5.4-2.8-2.2-3.8 2.7-2.9 5.2-.5 2.2.3 5.2 2.8 5.7 1 .2 2.1-.2 2.7-1 .6-.8.4-1.8 0-2.6.6-.3 1-1 1.1-1.9zM70.5 175.3c-.3-.1-15.9-1.5-18.1-.5-2.2 1-1.3 3.4-1.3 3.4s-6.3 1.5-7.5 2.7c-1.2 1.2.1 3.2 1.7 3 0 0 2.1 6 8.2 6.2 6.1.2 12.5 1.4 15.1-3.8 2.4-5.1 1.9-11 1.9-11z" fill="#BD7B77"/><path d="M403.7 226.8c-.6 1.2 2.6-1 3.1-1.4 1-.9 4.6-4.3 4.9-5.5-2.9-.9-7 5-8 6.9zM413.9 227.9c-.9 0-2.6 3.1-2 3.5 1.5 1.2 2.6-1.7 3.3-1.9-.6.2 3.9-4 2.1-3.8-1.2 0-2.2 1.8-3.4 2.2zM308.5 114c-1.9 2.2 13.6 9.6 14.5 1.3 0 .2.1.3.2.5 2.1-1.7 3.8-15.6 5.1-15.6 1.3 0 1.8-3.1 1.8-4-.1 2.1 7.2 3.6 8.6 1.5-2-.8-5.3-2-7.3-2.5-2.7-.7-2.8-.3-4.2 2.8-1.7 3.9-5.1 11.5-5.1 15.7-.1-.2-.1-.5-.2-.7 0 .1 0 .1-.1 0-.2.2-.4.5-.6.7 0-5.6-6.7-3.3-9-5 .1 0-1.1.7-1.4.9-2.1 1.5-1 2.9-2.3 4.4zm21.3-18.2c-.4 0 .7 1 0 0zm-3.6 8.4c.6 0 0 0 0 0zM313 117.9c0 .7 0-.7 0 0zm0 .3c0-.4.3-.2 0 0zm7.8-5s.3 1.2-.2.6c.3-.1-.5-.6.2-.6zm-.3-.6c.1-.2-.3.4 0 0zM460.4 157.5c-1.1-.4-10.1 4-11.3 4.7 3.3 3.3 10.5-1.4 11.3-4.7zM451.3 149.6c-2 1.1 8 6.9 6.2-.4-1.9.5-3.3 1.7-4.3 2 .4-.7-.7-3.4-.9-4-.7.3-.5 2.2-1 2.4zM381.8 179.5c3.4 1.4 1.9 9.2 6.8 9.2 0-1.8-4.8-9.4-6.7-10-.2.2-.3.5-.1.8zM379.1 186c3.9.8 2.9 9 9 9 0-1.7-7.4-9.6-9.1-10-.1.3-.1.7.1 1zM414 223.7c-1.4-.5-7.3 4.6-6.8 5.9.6 1.8 6.8-4.8 6.8-5.9zM196.7 106.7c0 2.2 5.5 2.4 6 1.2-1.6 3.3 4.8 8.1 4.8 7.5 0 3.2 8.5 3.1 9.3 3 1.9-.2 13.4-3.6 10-6.5 2.5 2.2 4.2-3.9 3.6-5.9-2.8.7-4.1 5.7-6.7 7.3-2 1.2-4.5 1.7-6.7 2.4-1.6.5-8.6 1.3-9-.2.4 0 .4.2 0 .4 1.4-.7-2.2-2.9-2.3-3.2-.7-1.3-.4-3.1-1-4.5-.7-1.5-.2-2.3-2.2-2.7-.7-.1-3.5.8-3.3 1.8-.4 0-.7-2.2-1.6-1.3.7-2.1 11-8.8 7.9-12.5-.1 0 13.7 1 12.1-1.1 1.2 1.9 5.1-2.2 4.8-1 0-1 .1-.1 0 0 .3-.4 0 .2.3-.2-1.3 2.1 1.9 6.2 4.1 6.7 3.5.8-.1-2.8-1.2-2 .6-.9-.2-5-.9-5.8-2.1-2.2-1.2-.9-3.5-.5-.9.2-4.9 1.2-3.4 2.7-.7-1.3-2-.7-2.4.1 0-.7-3.8-.2-4.4-.2 0 0-3.7.2-2.8-.2-.3.2-.6.5-.7.8-1.5-.4-6.6-5.4-7.9-4.2-.8.8 5.2 4.2 5.2 4.6.1 5-9.3 8.5-8.1 13.5zm29.2 7c.5-.1-.2.1 0 0zm-.2 0c.6.7 0 0 0 0zm-17.5 2.3c.2-.2-.3.3 0 0zm-8.3-8.7c.2.5-.1.4 0 0zm24.6-11.9c-.5.1.3-.3 0 0zm-.2-.2c0 .2.2-.3 0 0zm-6-3c.2-.2 0 .5 0 0zm-8.7 1c0-.3-.1.8 0 0zm-4.2-.1c-.1.1-.1.1 0 0zm-.7-1.9c-.3.6.2-.4 0 0zm-3.2 10.3c-.3.3.6 0 0 0z" fill="#222525"/><path d="M205.999 87.2c.1.3 6.7 1.5 6.9 1.5 3.2.5 7 .3 9.1-2.7-3.2-1.1-10.7 3.9-13-.1-.9-1.5 4.8-3.7 6.3-4.1 2.6-.8 7.4-.4 9.9.6 1.4.6 5.4 5.2 5.6 5-.5.7 0 9.5.2 9.5.3-.2 5.8-2.7 5.7-2.5-.6 1.5-.2 3.5-.9 4.9-.6 1.3-2 1.6-3 2.9 2.3.8 6.9-3.4 5.1-4.2 5.1-.4-3-10.9-5-4.8V93c-.2.1-.4.2-.5.4.5-.5.5-.6-.1-.2 2.1-.9-.1-4.9-1.4-5.3.7.4.4-3-1-3.5 1.6 0-10.1-8.1-9.3-4.1-2.2 0-3.9-.7-6.5 0-1.8.6-9.5 4.2-8.1 6.9zm31.3 9.3c-.4-.3.4-.1 0 0zm0-.4c1.1 0-.5.4 0 0zm-6.5-7.7c.4-.2-.3.3 0 0zm-9.7-7.9c.1.6-.1.3 0 0zm-8.8.9c.5.2 0 0 0 0zM225.1 105.6c.3-.3.3-.7.2-1.1-3 .7-4.4 4.099-6.8 5.299-2.3 1.1-5.1.001-7.4 1.201 2.2 2.2 7.5.9 9.8-.6 1.3-.9 2.8-4.4 4.2-4.8zM214.099 98.4c.3.1.6.2 1 .3-.1-.1 0-.1.2.1-.3-.1-.6-.1-.9-.2 0 .6.7-.2-.3.6 0 .1.4 0 .7 0-.6.2.5.8 1.1 1.9 0-.4 0-.8.1-1.1.1.3.3.6.5.8.2-.4-.1-.3-.2-1 .3.4.4.4.3.2l.5.5c.2-.2 1-1.1.1-1.2.2 0 .4 0 .6.1.4.3-1.2-.8-1.1-.4.7.2 1.3 0 1.6-.6-.6-2.8-4.4 0-4.2 0zm3 1.1c.6.2.2 0 0 0zm-1.2.4c.1 0 0 .2 0 .3v-.3zM231.199 153.199v1.4c2.1-.2 3.8-2.7 5.6-3.6 1.7-.8 3.5-.7 5-1.8-2-3-9.5 1.6-10.6 4zM223.6 214.7c2.3-1.1 6.8 11.3 7.9 12.6 2.1-2.1-.8-6.8-2.3-8.6-.5-.7-5.7-5.3-5.6-4zM222.8 220.1c2.1 0 1.4 8.4 1.9 9.4 2.2 0 1.8-4.2 1.5-5.5-.6-2.6-1.5-3.7-3.4-3.9zM230.8 179.7c1.2-3.5 2.2-8.7 1-12.4-2.1 4.2-2.7 11-3.7 15.7-1 4.7-2 11.2-1.5 16 3.5-5.9 1.9-13 4.2-19.3zM46.4 179.2c-1.3-1-3.7 1.7-4.3 2.6 1.9 0 9.8-1.4 8.7-3.7-1.4-3.1-3.7 1.7-4.4 1.1zM52.4 181.3c-.4 1.8-8.6 0-8.6 3.9 1.4.5 9.1-2 9.9-3.2-.1-.1-1.1-1.3-1.3-.7zM49.1 187.2c.4.7 8.6-.5 5.3-2.4-1.2-.7-2.8.5-3.6.7.2 0-5.3 1.9-3.6 2.2 0 0 2-.3 1.9-.5zM101.1 120.2c0-.1 0-.1 0 0 .1 0 .1 0 0 0zM41.9 189.4c0 2.1 3 3.1 3.9 2-1.7-.1-1.6-2.8-3.9-2z" fill="#222525"/><path d="M48.8 194c.4-.7-2.7-4.2-3.9-1.6-.4.9 3.2 3 3.9 1.6zM41.3 193.3c-2.3.2 4 5.6 4 3.7 0 .9 3.3.7 1.1-1.2-.5-.4-1.8-.7-2.1-.8-.2.2-.5.3-.7.5.6-.6-2-2.2-2.3-2.2zM35.8 194.9c-1-1 2.1-1.2-.6-1.9 2.9.6.4-4.2-1.3-3.4-.1.1-.2 3.4-.2 3.6-.3 1.7-5.2 10.2-4.2 11.1-1.3-.7-2.1.6-1.9 1.5-1.4-1.4-4 4.7-4.2 5.2-.4-.2-.9-.2-1.3-.1-.1.4 0 .7.2 1.1-1.8.6-3.2 1.4-4.9 1.3 1 .1-1.2-3.7-1.5-1.1-.2 1.5.4 2.7 1.9 3.2 3.1 1 6.3-3.6 8.1-5.6.7-.7 4.8-4.9 3.1-5.3 2 .7 2.7-4.4 4-4.2-.2.5 1.2-2.8 1.1-2.8.3 0 2-2.4 1.7-2.6zm-16.6 18.8c.3 0-.6-.5 0 0zm4.7-2.8c-.5-.4-.1-.1 0 0zm5.7-6.8c-.4-.2.3.2 0 0zm5.8-9.6c-1.2 0 .5-.1 0 0zm-.1-.2c-.3-.2.5 0 0 0zM124.7 153.1c-.2.1-.2.1 0 0zM124.8 153c-.3.2.3-.2 0 0zM88.4 117.2c-.5 1.9 2.2 3.7 3.5 3.7 2.6.1-1.5-2.9-1.2-2.4-.2.3-.5.4-.8.3.5-.5-.2-3.3-.9-2.7-.2.4-.4.8-.6 1.1zM9.4 186c2.4-.7 6-5 4.6-7.7.8.9-1.5-12.5-2.8-11.7-1.3-2 .6-5.4-1.1-8 1.2 2 8.2-.5 8.2-3.1-1.5.3-2.7 1.4-4.1 1.7-1.1.2-2.8-.3-3.7 0-2.6.8-2.3 1.2-1.9 4.5.6 5.2 4 11.5 4 16.2 0-.3-.6-.4-.6-.4 0 .3 0 .6-.1.9-3.1-4.6-7.4.7-10.3.5-5 7.2 7.5 9.5 7.8 7.1zm.6-27.2c-.8-.7.6.5 0 0zm1.3 8.7c-.6.3.6-.4 0 0zm0 10.5s-.1.1 0 0zm-.2-.2c.1 0-.2.2 0 0zm-.4-.2c.2-.1-.3.3 0 0zM7 186.4c-.9-.2.6 0 0 0zm.2-.1c-.2-.3.2-.3 0 0zm1.6-1.7s.6 1.2 0 0zM13.4 130c-.6 1.8 1.3 1.2 1.7.8-.3.3-.5.5-.8.7 5.7 7 13.4-3.3 13-9.2-.2-2-2-16.4-3.9-16.8 2.9 0 5.9-1.2 8.5-2.3.6-.3 5.6-3.5 4.2-3.5 1.8.4 4.1-1 5-2.5-.6 1.2 2 8.4 2.3 10.1.5 2.4.8 5.7 1.8 7.9-.2-.3-.3-.3-.3 0-1.6-3.2-9.6-.2-11.4 2.1-4 5.2 3.5 7.6 7.5 6.3 8.2-2.6 6.1-10.3 4.5-16.6-.6-2.5-.8-8.3-2.4-10.3-1.4-1.6-7.4-1.2-6.6 2.2.1 0 1.1-.7.9 0-.4 1.2-7.3 2-7.6 3-2.7 0-7.3.8-8.3 3.5-.7 2 1 5.8 1.5 7.6.6 2.3 1.7 4.7 2.3 7 .1.4-.7.9-.5 1.5.4 1.2 1.8 2.6 1.9 3.8-.1-1.7-5.8-2.1-7-2-4.9.5-4.9 3-6.3 6.7zM34 117.8c-.3.4.3-.2 0 0zm.4-.2c-.7-.7.1-.2 0 0zM38 98.4c.5-.5-.2.2 0 0zm-12.9 20.3s.6-.2 0 0zm-10.3 7.1c.8-.6-.6.4 0 0zM271.2 234.8c-1-1.8.3-3.4-1.3-5-1.2-1.3-3.3-1.2-4.5-.8-.5.1-3.9 3.8-2 3.2-.5.2-1.6 1-.4 1.8-2.6 2.4 4.5 4.3 4.2 3 .3.4.6.6 1.1.7.2-.3.3-.7.1-1.1 2 0-1.7 3.3-2.3 3.6-2.7 1.3-5.5.4-7.2-2.1-1.3-2-1.1-4.4-1.2-6.7-.1-2.6.2-2.7-1.1-4 .4.9 1.1-4.5 1.1-4.7 0 0 .6-1.2.7-1.6.3-2.7.6-5.5.5-8.3-.1-1.7-.2-4-.5-5.3-.1-.5-.9-3.7-1-3.9-4.6-7-12.7 1.5-7.7 6 .7.7 1.1 1.4 2.7.9.2-.1 1.4-.5 1.7-1.4.6-2-1.2-2-1.2-3.4 0-.4-3.2-1.6-2.2.4.4.4-.5-.5-.4-.6-.5.3.4.4-.9.4.1.3.1.3 0 .1.5.5.6.6.1.3.7 0-.2.5-.2.4-1.5-2.6 2.4-3.8 4.4-3.4 2.3.5 2.1.8 2.7 3.7.5 2.4.8 5 .9 7.4 0 1.3-1.1 12.9-.2 12.1-2.1 1.4-.7 11.9.1 11.9.2 0 4.3 4.8 6.5 5 2.7.2 10.8-7.5 7.5-8.6zm-4.4 2.2c-.2-.3 0-.3 0 0zm2.2-.4c0-.1.1 0 0 0zm-11.2-26.7c.7-.3-.2.1 0 0zm-5.5.1c-.2 0 .6.6 0 0zm-.4-8.7c-.6.9.3-.8 0 0zm4.8 26.6c0 .5 0-.4 0 0zm11.7 13.1c-.1.1-.2.1 0 0zm0-.2c0-.4.4.1 0 0z" fill="#222525"/><path d="M499.9 219.7s-.4-1.4-.6-1.4c2-.5-.1-12.1-.7-14.9-.2-.9-3.1-10.2-3.4-9.9 1-4.4-4.7-12.1-7.5-15.3-2.9-3.2-6.4-7.5-10.2-9.5-2.1-1.1-7-1.2-8.1-3.5-3.1-6.2 7.1-10.8 9.5-14.2 1.9-2.8-.3-6.5-.2-9.5.1-2.4 1.3-6-2.8-5.3 1.9-.4-1.6-13.8-9.1-8.8.9-.7-1.5-3.5-2-3.9-2-1.6-4.4-1.7-6.8-.9-2.7.9-5.1 3.5-7.3 3.2-3-.5-3.6-2.6-7.4-1.4-1.6.5-3.2 1.7-4.5 2.7-3.2 2.5-2.7 4.6-6.9 5.9-2.9.9-5.7.3-7.7 2.8-4 4.9.1 7 3.7 9.1 1.8 1.1 2.4 2.4 4 3.8.5.5 2.4.7 2.5.9.6.8.1 2.4.6 3.3.6 1.1 6.1 4.3 6 4.3-3.9 2.6 3.7 7.7 3.8 9.6.1-.1.2-.2.2-.3 0 0 6.7 2.8 7.7 2.8 3.2-.2 10.3-5.2 10.6-8.6-6 1.5-8 7.5-15.2 5.1-4.4-1.5-4.9-3.9-6-8.1-.5-.1-.9 0-1.3.3 1.9.9-.6-3.6-.7-3.7.3.3-2.1-.7-1.9-.6-.9-.7-1.2-2.2-2.3-2.8 1.4.9 3.5-1.9 3.2-1.9.7 0 3-1.2 2.6-1.2 2.3-.7 3.6-.8 5.7-2.8 1-.9 1.8-2 2.8-2.9 1.1-.8 3.9-1.8 4.5-2.9.1 2.1 5.5 8.3 7.6 5.7-.1.2-.1.2.1 0-3.7 3.7 8.8 6.3 8.2 3.3.5.3 1 .6 1.5.8 1.1 0 .9 3.6.1 3.7.9 1.9-2.6 2.3-3.2 3.1-1.7 2.4-1 5.1-1.2 7.5-.1 2-.1 2.4-1.9 3.1-.6.3-7.8-.3-5.4 2.1-.5.5-2.1 1.1-2.6 1.4-.8.4-1.8 1-2.7 1.5-2.1 1.1-.2 1.7-2.6 1.3-1-.1-2.6-1.8-3.4-2.3-3.2-2.1-4.6-2.9-7 .4-.6.9-2.7 6.8-.9 5.5-1.8 1.2-.1 3.5 1.4 3.8-2.8-.7-6.2 8.2-8.4 8-.4 2.2-4.3 4.8-5.9 6.3-2.9 2.8-6.1 6.4-10.2 7.4-3.7.9-6.7-.4-8.4-3.9-.3-.5-3-9.9-3.4-8.2 1.4-3.5-4.9-12.4-8.6-13.9-7.5-3-1.8 7.2-1.9 10.2 0 .5-4.4-2.6-4.8-3-2.8-2.6-3.6-5.7-5.7-8.7-3.3 6.7 12.1 18.4 13 11.7.3-2.3-6.8-10.8-.2-7.1 2.7 1.5 5 10.5 7.5 10.4-.3-.4-.2-.6.2-.7-.2-.2.6 4.6.7 5 .9 3-.2.5.4 2.3 1.2 3.7 2.5 7.1 6.5 8.3 3.3 1 5.6-.2 8.2-2 .1 0 2.3-2.6 3.2-3.1 1.9-1.2 4.2-1.3 5.2-3.7.9 1 2.8 8.1 4.8 5.2.6.4-1.9.9-.1 1.7 1 .5 2.1.8 3.2 1 .5.1 2.5.3 2.7.4.2.1 1.8 1.5 1.1 1.5-.8 0-1.7 9-1.6 9.1-2.1-3.2-9.7 2.3-11.7-.8-1.7.6-14.5-2.8-15.3.2-.2-3.1-7.4 1.1-8.4 2.7 2.8.7 6.1-1.4 8.9-1.5 3.4-.1 7.1.6 10.5.7 4 .2 12.8 1.8 14.9-1.4-.9.9 5.5-.1 5.4 0 1.9-.3 4-.1 5.8-.8.9-.3 8.1-4.8 5.7-5.3.6-1.7 8.6 1.3 9.6 1.6 2.3.6 4.6 1.2 6.9 1.3 2.3 0 5.1-1.1 7.4-.6-1.4 4.7-1.6 10-4.1 14.4-1 1.7-2.4 3.5-4 4.6-1.1.8-4.3 1.2-4.5 2.8.4-.2.6-.1.6.3.4-.7-5.7.2-6.3.2-2.5.1-5.3-.6-7.8-.9-4-.4-8.3-.6-11.7-.9-6.1-.5-23.2-8.8-25.3 1.5 2-.7 3.1-2.9 5.1-3.4 2.1-.5 4.4.6 6.4 1.1 3.2.7 8.3 2.6 11.6 2-4.4 3.3-16.6 3.9-18.9 9.5-2.1-1.6-3.2-4.3-5.6-5.6 0 .4-.2.6-.6.7-2-4.1-7.2-3.9-11.2-4.3-1.5-.1-5.9.3-4.8-1.3-1-5.1-.4-11.4-3.9-16.5-1.5-2.2-4.1-3.7-5.4-6-1-1.8-.8-4.3-1.5-6.3-1.7-4.6-6.2-8.8-10.5-11 .2 3.7 4.9 5.2 7 7.8 1.7 2.1 4.1 7 3.5 9.8-2.5 0-4.9-1.7-7.4-2.1-2.7-.4-5.7.1-8.4.2 7.3-11.6-24.9-14.5-29.4-17.2-14-8.3 14.5-18.1 11-24.5-.2.3-.4.5-.7.7 2.3.9 5.7-8.2 5.7-8.2 1.5.4 1.6-5.2 1.4-6.7-.6-3.9-2.9-6.9-6-9.2-.9-.7-10.6-4.6-10.2-3.3-1.1-.2-3.4-1.6-5.4-1.7-3.7-.3-7.5-.7-11.3-.4-5.1.5-10 1.8-15 2.9-3.5.8-8.8 1.2-11.3 4.2.1-.1.3-2.1 0-2.1 3.5 0-.2-13.2-1.2-15.1-.5-1-7.5-9.5-7.8-8-1.7-4.6-11.8-8-16-9-6.8-1.5-18.1-4.9-24.2 0 7.6 1.1 14.6-.5 22.2 1.5 6.1 1.6 11.9 3.8 16.8 7.8 4.2 3.5 7.7 8.2 9 13.6.7 3.1.7 6.2-.3 9.2-.3.9-3.3 6.6-2.6 6.4-3.1 1.3-5.7 3.6-8.9 4.8-3.1 1.2-5.7.9-9 1.1-5.1.2-9.7-1.3-14.8-1.5 1.5-3.8 1-8-.2-11.9-.4-1.2-4.2-8.1-2.1-8.1 4.9 0 14.7.1 18.7-3.9-3.4-1.3-6.5 1.8-9.8 1.5-3.8-.4-5.1-3.7-7.8-6.1-2.3-2-10.5-9.7-13.6-9 1.6-.3 4.7-34.1 2.8-35 0 .3 0 .5-.2.7 1-.2 1.8-9 2-9.9.5-2.4-.3-7 1.7-8.7 1.7-1.4 4.6-.2 6.6-.9-1.2-1.2-5.6-2.5-7.1-1.6-.3-.7 1.7-8.6.1-8 2.1-2.6.7-6.9 1.6-10.3.9-3.3 3.1-3.8 4.8-6.5 1.6-2.6 1.9-6.6 3-9.6 2-5.4 6-12.7 2.8-18.3-1.4-2.6-4.4-4.2-7-5.2-.8-.3-7.9-.9-6.5.2-4.4-4.4-12.7 7-10.8 8.1-.1-.1.7 6.6.7 7.4.4 4.9-.6 11.8 1.5 16.3.9 1.8 2.5 2.9 3 4.9.8 2.8-.3 6.1-.8 8.9-.5 2.5-.4 6.9-1.4 9.2-1.8 4-4.1 1.5-7.4 3.1 4.7 2.5 7.6-2.1 6 5.6-.6 2.8-1.3 5.5-1.8 8.2-.1.5-1.2 9.4-.2 8.4-2.7 2.7-1.7 7.6-2.3 10.9-.5 2.5-1.2 5.2-1.6 7.8-.6 3.9-.7 10.6-3.5 13.3-2 1.9-8 2.8-10.6 3.9-4.5 2-8.6 4.9-12.2 8.2-8.9 8.1-13.4 17.6-16.3 29.1.3-.1.6 0 .9.2-2.8 2.8-1.2 6.4-1.4 9.7-.1 2.1-1.7 5.1.4 6.9 1.2 1.1 3.7.1 5.6.6 3.3.9 2.4.7 2.8 3.6.3 2.2.3 6.9-2.3 7.9-2.4.9-4.2-2.5-6.1-1.9-2.5.8-.7 4.3-3.3 4.6-2 .2-3.7-4.7-5.9-3.2 0 .1 1 .8.3.8-.8 0-4.1-4.9-5.1-6-1.6-1.6.9-10.9 1.6-13.9.6-2.6 1.4-6.3 2-8.1 1.4-5 3.6-9.8 5.2-14.8 1.2-3.7 3-7.2 4.4-10.9.8-2.1 1.4-6.6 2.9-8.3-3.4 1.5-4.4 7.6-5.7 10.7-2.5 6-4.9 11.9-7 18.1-3.5 10-10.6 25-.1 32.9.1-.3.3-.6.6-.6.7 3.6 4.8 4.1 7.5 5.7.7.4 5.4 3 5.5 3.7-3.1 2.6-6.8 3.3-9.1 6.9-1.1 1.7-3.4 6.3-2.3 8.4-6-3.6-12.9-6.9-17.4-12.3-1.8-2.2-8.6-12.2-11.5-12.1.2.3.4.6.4 1 .9-1.4-4.2-9.4-3.2-10.4.7-.2 2.2-8.3 2.8-10 1.6-4.3 4.2-7.8 6.6-11.7 2.4-3.9 4.4-7.9 7.1-11.6 3.7-4.9 8.6-10.7 13.6-14.2 6.7-4.6 14.7-3.6 21.7-7.1-15.5-3.2-28 9.1-36.5 20.2-8.4 10.9-22.6 29.1-14 43.5.6-1.2 2.1 3.6 2.6 4.4 1.5 2.5 3.7 4.4 5.8 6.3 3.4 3.1 6.1 4.4 4.8 9.3-1 4-3.3 7.7-4.7 11.6-2.3 6.5-4.4 13.6-7.5 19.8.3.1.6.2.8.4-3.9 1-1.6 9.1-4.9 10.1.1.1.2.2.4.2.2.1-7.3 17.4-7.3 19.5-2.6-2.1-5.8-18.6-9.2-18 6-.7 9.2-3.5 5.7-9.4-.2.4-.5.5-.8.3 0-6.2-21.4 2.3-25 3.4-4.2 1.4-8.7 2-13 2.7-2.5.4-13.1.2-14.4 2.4 2.5-5-.8-12.4 2.4-17.8 2.1-3.6 9.2-4.3 13.3-5.1 3.6-.7 6.7-1.1 10.2-2.6 1.3-.5 10.2-4.7 6.1-6.6.1.4 0 .7-.2 1 2.3-.2-1-10.3-.8-10.5 2.3-.8-6.4-28.3-7.7-32.5-.8-2.4-6.3-25.4-9.4-23.1 3.5 4.4 3 13.5 3.5 18.9.2 2.5-1.4 18 .7 19-.1-.5.1-.6.5-.5-.4-.6-2.1 7.1-2 6.7-1 4-2.6 8-4.5 11.6-2.9 5.3-4.2 10.9-11.5 8.2-7.1-2.5-15.4-9-19.7-15.1-1.1-1.5-2.8-3.4-3.6-4.9-1.9-.5-2-1.4-.3-2.8.6-1.2 1.1-2.5 1.6-3.7 1.2-3 2.7-6.8 1.6-10.1 2.9.7 4 1.5 6.3 3.1 1 .7 6.5 5.1 7.8 4.3-.4-.2-.5-.4-.1-.7-.1 0 3.7 5.7 5.1 5 4.2 1.7 1.3-19.8.9-19.6 1-1.6.3-1.9.2-3.8 0-3 .7-6.2 1.2-9.2 1.3-6.9 2.7-10.6 9.2-13.8-7.9-3.7-10.9 10.9-11.4 15.9-.6 6.2-.6 12.7-.2 18.9.1 1.8 2 8.6 0 9.9-.3.2-3.2-2.8-3.6-3.1-.1.3-.3.5-.6.6-.9-3.6-4.6-4.2-7.3-5.9 2.4-1.7 3.7-10.5 4.7-13.3.9-2.5 2.8-5.1 3.1-7.8.3-3.3-1.9-5.2-3.2-8-1.8-3.8-3.5-7 0-9.9 1.2-1 5.6-2.6 5.6-2.8 0-.7 6.8-1.8 7.7-2 1.4-.3 4.5-2 5.8-.8 1.6 1.3-.3 4.7 0 6.4.6-.2 2.5-3.7 2.2-3.7 1.6 2.3 4.4 1 5.3 1.8.9.8.6 2.9 1.4 3.9 2.4 2.7 4.3 1.2 5.7 4.8 1.1 2.9.9 2.8 3.2 4.5 1.5 1.1 3.9 2 4.2 1.7.4-.4.5-.4.2-.2.5-.3.2-.1 0 .1-.1.1.5-.3.6-.3 0 0-.9.6.1 0-.3.2-1.5.9.1 0-.8.5-1.1.7-.5.4-.5.2-.6.3-.1.2-.3.2-.6.5-.7.8.2.2.5.3.7.5-3.3 0-1.7 5.2-2.7 6.1-1.8.6 1.6 2.5 1.6 3.7 0 1.7 2.7.8 3.5 1.7-4.6 5.7-1 17.4 7.6 16.3-2.7-3.6-7.7-4.8-8-9.9 0-.9 3.6-9.3 4.8-8.2.9.9 2.1-1.2 2.2-1.7-3.1-1-7.5 3.3-9.9-1.2-.8-1.6 2.5-5.6.6-6.5 1.6.5 1.9-1 3.1-1.9-.1 0-.3 0-.4.1.2-.1.3-.2.5-.3h-.8c1.2 0 .1-.1.5-.6.8-.8 1.1-.9 1.6-1.8-.1.1-6 1.2-6.2 1.1-1.6-.2-1.1-.6-2.3-2.1-1-1.2-2.7-3.3-2.7-5.1.1-3 3.7-4.2 3.4-7.3-2.8.9-5.9 6.9-9.1 3.5-1.6-1.7-.5-3 .2-4.6 1.3-3.3 1.8-3.3 1.3-7-.4-3.1-2.1-3 1.9-4.6 2-.8 3.9-1.7 6-.8 6.7 2.7 4.2 12.3 4 17.5 2.8-2.8 6.8-7.2 10.8-2.8 4.3 4.9-1.9 13.4-4.4 17.5 5-.8 7.8.1 8 6.2.2 5.2-3.6 8.5-6.4 12.5 3.3 0 4.3-.5 4.8 3.4.1 1 0 4.6-.8 5.2-.7.6-3.5.1-4.5.6-.9.5-4.3 2.9-1.3 2.9-1.6-.3-1.5 1.4-.8 1.8 0 0 .4 6.3.5 7.1.3 2.8 1.4 6.8 5.1 5.6-.6-2.4-3.3-2.9-3.5-5.7-.2-2.9 2.4-3.1 2.3-3.8 1.1-1.1 3.7 4.5 3.8 5.9.4 4.6-2.5 8.8-2.9 13.2 3-1.5 4.3-6.1 4.6-9 .4-4.6-1.8-6.3-3-10.3.4 1.1 1.4-3.1 1.4-2.7.4-1.7 0-3 0-5.1 0-2.8 1-4.4.3-7.2-.5-1.9-1.5-3.2-1-5.1.4-1.6 2.2-2.7 2.8-4.3.5-1.5.3-3.5.2-5.1-.2-3-1.2-9.6-5.6-8.8 2.6-4.3 5-9.9 2-14.5-1.9-2.9-6.5-5.7-9.9-2.6-.9-5.8.8-10.5-5.9-13.4-3.4-1.4-9.7-1.9-10.3 3-.5-.1 1.8-7.4 1.9-8.2.3-1.9.5-4.1.1-6 0-.2-1.7-5.2-2.2-3.3 1.8-8.8-13.9-9.4-18.6-8.9-4.2.4-8.7-2.7-12.6-2-7.6 1.5-3.8 12.6 3.1 11.2-1.7-1.7-7.4-5.1-4.9-8 2.1-2.5 6 .7 8.2 1.1 3 .6 5.9-.4 8.8-.7 3-.3 5.3-.4 7.8 1 1.5.8 5.9 6.1 7.6 5.8-.3-.3-.3-.6.1-.7-.6-.3 1.5 6.5 1.6 7.2.5 6.1-4.8 10.6-7.8 15-1.3-1.7-2.6-2.2-2.7-4.3-.1-2.9 3.1-4.3.2-7-2-1.8-4.9-.4-6.5-3.5-1.6-2.9.1-6.8-1.1-9.9-2.6 3.4-8.9 4.4-13 4.8-2.3.2-6.3-1.2-7.7 1.3-1.6 3.1 3.8 5.4 3.8 4.8 0 .6-.7 6.1-1.2 6.5.6-.1-3.6 3.2-4.5 2.3-.6-2.4-12.5 4.1-14.1 5.3-.8.6-8.1 8.3-7 8.3-3.7 1.4-6.7 9.5-7.5 13.1-1.9 7.5-5 19.9-.7 26.9 1.6-6.2.1-13.2 1.3-19.6 1.3-6.9 3.2-13.3 7.5-19.1 1.6-2.2 17.3-18 21.4-13.5-3.3 2.9-8.1 3.2-11.5 6.1-2.4 2-5 5.3-6.6 8-5.9 10.1-7.6 27.2-3.6 38.1.5-.8.9-1.7 1.4-2.6 0 .1 16.6-2.9 17.2 3.8.2 2.7-2.3 10.6-4.8 11.9-4.1 2.1-9.5-4.1-14.3-.5 2 .6 2.4 10.3 3.1 13.5 1.1 5.2 1.7 10.3 1.6 15.6-.1 7.4-2.6 21.7-13.3 18.6-8-2.3-9.8-12-15.2-17.1-2.8-2.6-5.4-3-9-2.4-1.1.2-5.9 2-6.8.7-1.1-1.5 1.8-9.9 2.3-11.3 1-3 2.7-5.5 4.8-7.8 3.8-4.3 6.7-8.3 11.8-11.3 1.5-.9 5.1-3.5 7.1-2.2 2.3 1.5.6 6.3.3 8.4-1 5.4-1.8 10.1.9 15.2 2.3 4.5 5.7 8.9 9.1 12.7-.6-4.4-4.4-7.4-4.7-11.9-.3-3.3.9-7.3 0-10.4.8.8 3.2.7 3.4 0 .5-2.2-1.9-1-2.2-1.6-.1.3-.3.5-.6.6.3-.3-1.4-1.9-2.3-1-.5.5.1 2.6.1 3.4 0 1 .4 7.7-.3 8.1-1.7-3.9-2.4-6.7-1.7-10.8.6-3.4 2.5-7.3 1.8-10.8-1.9-10.6-15.2.5-18.8 4.3-2.5 2.6-18.5 23.9-11.5 25.7-.2-.4-.2-.8-.1-1.2-2 1.2 3.1 4.2 3.9 4.3.5.1 6.1-1.5 5.8-1.8 0 0 5.3 2.3 6.6 4.1 2.1 2.9 3.7 6.2 5.9 9.1 2 2.7 4.5 6 7.9 7.1 2 .7 3.7-.4 4.9-.3-1.3 4.8 1.1 10.9 1.9 15.7 1 5.8 2.4 11.6 3.5 17.4 1.1 5.7 2.1 11.4 3.2 17.1.6 2.8 1 5.7 1.6 8.6 0 .2.9 6 1.8 4.4-1.2 2.1.5 4.7-.2 6.2-.4.8-3.4 1.7-4.1 2.1-2.4 1.2-4.7 2.5-7 3.8-3 1.7-19.1 7.8-17.4 12 2.1 5.3 26.3-4.1 30.6-5.3 1.4-.4 7.5-2.8 8.5-1.6 2 2.3-3.3 9.6 4 9.6-.2-.3-.1-.6.1-.9 2.1 1.6 7.4 1.5 9-.8 1.2-1.8.6-6.7.4-8.9-.2-3.9-1-7.9-.7-11.8.1-2 .8-27.9-.5-28.3 4.7 1.6 8.5-2.4 12.2-4.5 3.1-1.8 6.5-2.6 9.7-4.2 5.8-2.9 11.7-5.3 17.9-7.9 3.5-1.4 7.5-3.7 10.9-2.1 4 1.8 9.7 8.7 12.3 12.1 1.6 2.2 1.1.4.9 2.7-.1 1-.9 2.4-1.2 3.3-.8 2.4-1.5 4.6-2.6 6.9-3 6.3-4.6 13.1-7.5 19.4.1-3.3 1.2-18.7-3.6-19-1.7-.1-3.3 3.2-3.7 4.4-.3.8-.5 6.7.4 5.3-1.4 2.7 2.2 9.3 2.7 9.7-.6-.4 0 0 .6.6-.2-.2-1.2-1 .6.6-.5-.4-1-.8-1.4-1.2.4.3.7.6 1 1-.1-.1-1-.9-1.2-1.1.5.5-.3-.3 0 .3-.5-.9-2.5-1.9-3.3-2.7-1.5-1.5-3.1-3.2-4.5-4.8-3.3-3.8-3.6-7.8-5.8-12-3.6 5.4 3.6 13.5 6.7 17-4.5-.2-8.8-3.2-13.1-4.6-3.5-1.1-10.6-.4-4.9 3.9.1-.4.3-.6.7-.6 1 4.9 8.7 7.8 12.1 10.8 3.4 3 7.3 5.3 11 8 3.4 2.5 8.1 8.1 12.6 6.2 2.7-1.2 4.4-5.1 5.9-7.4 1.9-3 5.5-6.7 6-10.3 2.5 2.8 5.1 5.1 8.6 2.6 1-.7 4.7-6 3.1-6 2.2 0 4.3-5.6 5.6-7.3.2-.3 3.2-5.6 3.5-5.6 3.2 0 7.6-11.5 7.6-14.1.6 2.4 7.1 6.5 9 7.7 4.7 2.7 11.1 6.3 16.6 5.7-.1 4.2.1 8.8-.6 12.3-.6 3.3-1.8 6.7-2.2 10.1-.3 1.9.5 4.3.2 5.9-2.3-.3-1.8 3.9-1.4 5.1 1 3.8 3.9 3 5.7 5.3 1.6 2.2-1.8 6.5 0 8.9 3-1 1.3-6.3 2.8-8 2.6-2.9 5.9-1.2 7.5-6 .8-2.4 4.1-13.7 1.8-15 0 .3-.1.5-.3.6.9-5.1 2.4-10.9 4.2-16.2 3.3 3.7 1.4 13.8 1.8 18.5.4 5.8.2 12.1 1 17.9.8 6.1 4.9 5.4 10.3 5 3.3-.2 6.5-.5 9.8-.5 1.5 0 10.5-1.2 9.8-1.6 3.4 2.6 8.7-.3 12.5-.5 1.3-.1 3.6.8 4.8 0 1-.6 1.6-3.5 1.9-3.7.6-.4-8-4.5-9.3-4.8-3.2-.8-7.2-1.1-10-3 1.1 0 7 .1 6.2-1.2.6 1.9 5.6-1.1 6.3-.2-.1.3 2.9-1.4 2.9-1.4 1.5 1.5 5.3-3.3 5.8-4.2.2-.3 2.1-.5 1.3-1.6-1.3-1.8-2.6 1.1-3.4 1.6-2.7 1.5-5.7 3.3-8.5 4-.8.2-5.1.1-4.1 2.1-.6-1.4-1.8-1.1-2.5-.4-.5-.4-3.3-.1-3.5-.6 3.9-.6 16.1-6.1 10.5-10.9-.3-.2-.5 1.4-.3 1.3.9-.4-2.6-1.1-3-1.1-.9 0-1.7.7-2.4 1-2.2.8-4.4 1.7-6.5 2.7-1 .5-8.4 5.2-8.1 5.6-.3.1-.3-5.8-.1-6.2.6-1.4 3.1-2.9 2.8-3.4.3.8 6 1 7.1.3 1.4-.8 2.7-6.4.9-5.7-.5-1 .2-4.5.2-6.2-.1-2.7-1.6-6.1.5-8.4 2.1-2.4 16.2-6.5 14.5-10.8.5-.1-1.6.7-.8.1.3-.2 1.5-.1 1.5-.1.7-.8 2.3-2.4 3.1-3.2 1.2-1.2 1.5-1.5 2.7-2.8 2.4-2.6 6-13.4 8-13.9 1.7-.4.9 16.1.9 18.4 0 4.1-.1 8.1-.1 12.2 0 .9-.5 6.8.9 5.8-.7 1-1 10.8-.7 11 .8.2-1.5 19.7.4 21.6-1.2-.3-2.2.1-3 .9 1 .3 2.1.4 3.1.5-2.1 2 3.7 5 5.3 4.9 1.4-.1 6.5-3.2 4.8-4.9 1.2 0 2.3-.3 3.4-.9-4.4-4.4-2.1-13.3-2.2-19.4-.1-4.4.3-8.6 0-13-.5-.2-.9-.1-1.4.2-.2-.1 1.1-.9 1.1-.8 0-5.8.1-12.9-.1-17.9-.1-2.3.3-2.9.6-5.4.6-4.2-2.2-9.1-.9-13.1 5.3 2.7 14.8-.7 20.6.1-.6 1.9-1.3 7.1 1.1 7.1-2.2-.3-.8 2.5-.7 4.3 0 2.2-.4 4.4-.5 6.5-.2 6.1-.1 12.2-.1 18.3h.9c-.7 1-1 10.8-.7 11 .8.2-1.5 19.7.4 21.6-1.2-.3-2.2.1-3 .9 1 .3 2.1.5 3.1.5-2.1 2 3.7 5 5.3 4.9 1.4-.1 6.4-3.2 4.8-4.9 1.2 0 2.3-.3 3.4-.9-2.9-2.9-2.2-4.5-2-8.8.1-4.6-.2-9.1-.2-13.7 0-2.6.6-9.8-1-9.8.1-.1.8-.9.8-.8 0-5.4.1-11.4-.5-16.5-.2-1.9 2.7-11.7-.3-12.7 3-3.2-2.4-7.3 3.9-7.5 5.7-.2 11.5.5 17.3.5-.2-.3-.1-.6.1-.9 3.7 1.9 9.6.4 13.7.7 3.4.2 6.5-.1 10 .1s5-.2 5.2 3.8c.2 6.1-.3 12.6-.4 18.7 0 5.9-.1 11.2-3.3 16.4-1.8 3-5.5 11.2-8.6 12.7-3.7 1.7-13.5-3.7-17.1-4.8-1.7-.5-5.3-2.2-7.1-1.4-3.5 1.5-.3 3-.3 2.9-1.3 2.7 12.4 11.1 14.8 13 3.2 2.3 5.9 4.9 9.4 6.9 1.9 1.1 5 3.7 7.2 4 1.9.3 4.6-2.5 5.7-2-2.1 2 3.7 5 5.3 4.9 1.4-.1 6.5-3.2 4.8-4.9 1.2 0 2.3-.3 3.4-.9-4.5-4.5-2.4-8.9 2.2-12.8 3-2.5 6.3-4.6 8.9-7.5 2.1-2.3 3.5-5.8 6.3-7.2.9 5.4 8.2 13.6 5.2 19.2.3-.1.5-.2.8-.3-1.3 0-8 2.8-8.2 3.2-2.9 0-14.7 4.9-14 8.7.8 4.5 9.3.7 9.9 1.4 3.3 1.8 11.7.4 15.6.1 5.7-.4 17.5.6 19.6-6 2.1-6.8-.1-16.1-.1-23.1 0-2.3 1.7-13.4-1.2-14.4.1-.1-.2 1.6 0 .5.1-.7 1.4-8.7 0-8.7.7 0-.2-8.9 3.9-10 0 .9-2.5 9 1.1 6.5-.3.3-.7.5-1.1.8 2.2.9 4 2.6 6.2 3.6 2.1 1 2.9-.2 3.7 2.4.6 1.8 0 5.6.1 7.6.1 1.6-.2 15.4.6 15-1.5 1.5.5 6.3-.5 7.2-1.1.3.5 3.6-.2 3.9-1.5.7 0 10.2.8 11.2 3.4-1.1 1.5-21.9-.1-21.9.3-.3.7-.4 1.1-.5 0-1.6.7-11.3-.7-11.1-.4-1.1.6-3.5.8-5.1.3-2.5-1.3-5.7-.5-8.3 4.6 1.1 9.6.4 14.3.2.5 0 11.4-.6 10-1.8 1.4.9 5.8-1 6.6 0-1.6 1.2 0 9.7.1 12 0 1.2-.2 13.8.6 13.3-1.9 1.9-.7 7.9-.9 10.1-.3 3.3-1 10.6 1 13 3.1-2.1 1.8-22.7-.2-22.7.3-.3.7-.4 1.1-.5 0-1.6.7-11.7-.7-11.4-.5-.9.9-2.6.9-3.5 0-1.7-.2-3.6-.3-5.2-.1-1.1-1.4-4.9-.7-5.8 1-1.4 5.5.7 5.9-1.2 0 .1 6.2-3 7-4.4 3.6-6.5-3.3-11.2-8.7-12.3 6.1-4.7 6.3-13.7 7.5-20.6.5-2.5 4.4-14.2 1.4-15.6 0 .3 0 .6-.2.8 0 .8.9-5.9.7-6.7zM423.3 142c-.8-.2.6.1 0 0zm.3.2c-.4-.1.1-.4 0 0zm32.5 25.1c.1-.1.1 0 0 0zm-.3-.2c.4 1-.1.1 0 0zm-15-8.6c.2-.1-.2.1 0 0zm-2.2-9.1c-.4-.4 0-.4 0 0zm8.9-4.7c-.5 0 .1 0 0 0zm1.9-19.3c-.8-.3.1-.3 0 0zm.7.2s.2.2 0 0zm-56.2 60.8c-.2-.1 0 .1 0 0zm.5.1c-.3.9.2-.6 0 0zm11.8 1.6c-.3.4.4-.5 0 0zm14.7 14.4c-.7-.4 0-.4 0 0zm-5 11.1c-.2 0 0 0 0 0zm.2.2c.1-.9.2 0 0 0zm23.1.8c-.4.2.2-.1 0 0zm2.4-5.7c-.3-.1.4 0 0 0zm.3-.1c-.7 0-.1 0 0 0zm-10.8 20.4c-1 .6.6-.6 0 0zM274.8 109.5c-1.3.6.7-.3 0 0zm19 10.6c-.1.6.2-.8 0 0zm-24 11.8c.3-.8-.3.8 0 0zm-1.6-118.5c.6-.1-.6.1 0 0zm-76.6 127.3c.1-.1-.2.2 0 0zm-6.9 17.6c.8-.2-.3.1 0 0zm3.9 27.1c-.3 0-.2 0 0 0zm-4.5-56.2c.4-1.6-.1.8 0 0zm-16.7 19.3c.7-.1-.3 0 0 0zm-6.9 37.9c-.4.5.5-1.1 0 0zm-68-32.7c0 .3.1-.1 0 0zm-1.7 16.4c0-.4.7.1 0 0zm-.4 16.5s0 .1 0 0zm-5.9-3.9c1.3-.2-1.1.3 0 0zm1.1-25.5c.5 0-.6 0 0 0zm42 8.3c-.1.5-.2 0 0 0zm-3.4-10c-.2.2 0-.1 0 0zm-.7-3.5c.1.5-.2.4 0 0zm-4.6-3.8c.7-.1-.2 0 0 0zm-2.8-4.6c.1 0-.3 0 0 0zm15.5 43.1c0 .2.2-.2 0 0zm3.3 5.3c-.1-.5.1-.5 0 0zm1.7-.2c-.2-.6.4 0 0 0zm.3-.1c0-.2 1-.1 0 0zm.6-3.2c-.3 0-.6 2.7-3.5 1.8-1.5-.5-2-3.2-2.5-3.2 1.5 0 1.3-.8 1.6-1.7-.2.6 1.8 0 1.6-.4-.4-1.4 3.7 3.5 2.8 3.5zm.3-1.3c-.2.1.3-.3 0 0zm1.1 2.1c-.2.2.7-.1 0 0zM80.6 98.1c-.5-.1.4.1 0 0zm.4.3c.2-1 .2 0 0 0zm29.7 8.3c-.3.5.4-.7 0 0zm-4.9 22.7c.5.5-.2.4 0 0zm-.8 3.4c.3-.7.4-1.5.4-2.2.7-.3 1.4-.7 2-1 .8-.8 2.9-2 2.9-3.3 1.9 2.5 3.2 9.6-1.4 10.5-1.2.2-6.1-2.5-3.9-4zm-62.3 23.6c-.1.1.2-.4 0 0zm9.4-19.3c-.9-.1.6 0 0 0zm-1.8 20.4c-.3-.4.4-.3 0 0zm.3-.5c-.7.2.1 0 0 0zm49.8-23.6c-.1 0 .2-.4 0 0zm.1 0c-.2-.3.2-.2 0 0zm-.9-15.3c1-.7-.2.3 0 0zM86.7 110c0-.2-.1.2 0 0zm-7.5.4c.2.6.1.1 0 0zm-1.5 4.7c.3-.3-1.6-1.1-1.6-1.6 0-3.1-.4-1.1 2.5-1.7 1.5-.3 2-.8 3.5-1 3.3-.3 7.4-1.7 11.3-2.1-.6 7.4 2.8 8.9 8.4 11.9.1.1-1 4.2-1 4.8.3 2.9 3.9 4.7 3.1 6.7-1.3-3.1-15.5.9-17.1 3.2 0-1.4-1.8-3.2-3-3.9-.7-.4-1.5-.8-2.2-1.2-.9-.4-.8 1.5-1.4 1.3 1.4-1.4-2.3-8-2-10.4.1-1 1.1-2.2 1.1-3.3-.1-2-.9-1.4-1.2-2.2.1.4.3-.1-.2.3.2-.2.4-1.6-.2-.8zm2.1 30.9c-.1 0 0-.1 0 0zm-.6-15.9c-.4.2-.1-.1 0 0zm-1-14c.5-.3-.3.2 0 0zm-1.7 10.2c.2.1-.1 0 0 0zm-.3-2.5c0-.1 0-.1 0 0 0-.1 0-.1 0 0zm-.9 2.3s.6-.4 0 0zm-2.5-.3c0-.1 1.7-.2 1.9-.2-.3.1-1.9.3-1.9.2zm-21.3 43.6c-.1 0 0 0 0 0zm2-3.2c.3.2.6.4.8.5 0 .1-.8-.5-.8-.5zm.7 8.1c.1-.2.2 0 0 0zm.4-9.4c-.1-.3.4.1 0 0zm.4 0c-.6-.3-.2-.1 0 0zm10.6-13.5s-.2.1 0 0zm-.1-1.1c-.7-.4-7.2 10.2-8 10.2-2.1 0-5.1 8.8-5.9 8.5 1-5.3.2-11 1.1-16.4.8-4.7 2.2-9 4.7-13 2.4-3.8 5.2-6.8 9.2-8.9 1.9-1 3.8-1.6 5.8-2.3 3.5-1.1 3.5-1.6 5.2 1.3-1.7-.3-5.4 1.5-6.9 2.4-3.6 2.2-3.9 4.4-2.8 8.2.9 3 1.7 3.8.2 6.7-.8 1.5-2.5 3.4-2.6 3.3zm2.9 15.8c-.2.1.3-.1 0 0zm-2.3-14.8c-1 0 1.3-.3 0 0zm3.8 22.7c-.7-.1-3.2-.1-3.6-.8 2.2-1.6 2.9-5.3 4.1-7.6.7-1.3 1.8-2.6 2.2-4 .2-.6-.2-2.9-.6-2.2 1.7 1 8.2-10.2 8.1-13 2.4.4 1.4 8.3 4.9 9.4-.1-.1-.6 6.1-1.9 6.1-1.5 0-2.1 3.5-2.3 4.4-.7 2.1-1.7 3.6.5 4.3-3.3-1.1-1.2 6.1-4.5 6.3-1.5.1-3.6-2.9-4.7-2 .1-.1-2.1-.8-2.2-.9zm10.8-6.6c.1-.5 0 1.1 0 0zm-43.5 31.1c-.2-.6.4-.4 0 0zm.4-.7c-1.3.4.9-.5 0 0zm4.1 2s-.1 0 0 0zm-31 16.7c-.1.1.7-.9 0 0zm31.9 23.2c-.6-.7.5-.2 0 0zm3 .4c-.3-.4.1-.2 0 0zm-16.4 85.7c-.2-.3.5-.4 0 0zm.7-.5c0-.4-.4.5 0 0zm89.2-27.2c.4 0-.2.5 0 0zm.3.4c0 .7 0-.7 0 0zm83.6 17.7c0-.2-.1.1 0 0zm71.2 1.6c.3 0 .1 0 0 0zm-.1 0c.4.5.1.1 0 0zm-11.6 3.6c.1-.1-.2.2 0 0zm4.3-10.2c.5-.3-.6.5 0 0zm-10-6.4c.5-.2.1 0 0 0zm-.1-7.9c-.1.1.3-.3 0 0zm62.7 21.2c-.4-.1.4-.2 0 0zm.3-.2c-.8.2 0-.1 0 0zm.2-21.4c0 .5 0-.3 0 0zm.4-.7c-.1 0 .1.8-.4.4-.3-.2.8-.8.4-.4zm0-16.2c-.4.2-.5 0 0 0zm0-.7s0-.6 0 0zm0-2.9s-.1-.6 0 0zm10-7.2c0 .5.3-.4 0 0zm122.3 54c-.4-.2.4-.2 0 0zm.3-.2c-.9.1 0-.1 0 0zm.2-14.4c0 .1-.3-.3 0 0zm.6-18.6c0 .5.5-.5 0 0zm30.6 34.2s.1-.1 0 0zm.5-1.3c-.4-.1.5-.2 0 0zm.3-.2c-.9.2.1 0 0 0zm.2-14.8c.1 0-.3-.3 0 0zm.6-19.3c0 .5.5-.5 0 0zm11.5-20.7c.4.1-.2.4 0 0zm-.1.5c.8-.8-.2.3 0 0zm-1.7-73c.2-.1-.7.3 0 0zm-10.1-18.9c1.3.2-.2 0 0 0zm-17.3-16.6c1.1 0-.5.3 0 0zm.1.2c0 .1-.2.2 0 0zm-7.1 8.8c.4.6-.4-.5 0 0zm-6.4 6.5c.1 0 6.7-5.7 7.5-5.9 6-1.9 2.9 6 3.7 5.7-2.6.9-2.6 5.8-5.1 6.2-3.6.6-3.2-4.4-6.1-6zm10.8.7c0 .5-.3-.5 0 0zm-10.7 1c.6-.6-.5.7 0 0zm-.1-.1c0-.3 0 .1 0 0zm-1-3.5c-.1.1.6 0 0 0zm-2.6 1.1c.6-.6-.4.4 0 0zm-4.9-4.6c.1-.6-.1.6 0 0zm-4.7 7.7c.1.1 0 0 0 0zm1.3.8c.4-1.2-.7-1.4-1.5-1 1.2-.6 1.3-1.5.7-2.8-.7 0 4.7-4.6 4.7-4.2.3 0 5.7 5.8 5.8 5.1-1.4-.3-9.7 8.4-9.7 2.9zm9.4-1.5c-.2-.3.4.1 0 0zm0 0c.2.3-.4-.7 0 0zm-2.7 6.8c-.3-.7 0 0 0 0zm-2.3 5.3c-.4 0-.2-.1 0 0zm-2.9 8.1c0-.1.6 0 0 0zm0 .6c.2.1-.4-.1 0 0zm11.5 11.7c-.6-.3.7.2 0 0zM445.6 232c.3.7-.3.4 0 0zm-32.3 3.5c1.2-.3-.5 1.1 0 0zm-21.1-23.3c.3-.1-.2-.1 0 0zm-.2-.3c0 .5-.4 0 0 0zm-8.5-2.5c.8-.6-.5.3 0 0zm-25.6-13.8c.5.1-.3-.2 0 0zm-.4-.3c-.3.9-.3-.1 0 0zm-4.4-28.2c-.3.7.1-.1 0 0zm-6.9-27.5c0 .2-.1.6 0 0zm-23.2-1.8c1.2.2-.7-.2 0 0zm-27.5 12.1c.6.2-1.3-.3 0 0zm-16.3 21.8c1.5-.4 1-7.3 1-8.5 0-3.1-1.2-5.7.9-7.1 2.1-1.4 18.3-1.5 16-6.9-.2.3-.4.5-.8.5.6.3 4.8-4.4 5.8-5 3.2-1.8 7.6-2.7 11.2-3.6 6.9-1.6 14.1-2.5 21.2-2.4 15.1.3 31.9 9.3 19.6 25.6.4 0 .6.2.6.6-4.1 1.7-6 6.4-9 9.4-2 2-4.5 3.5-6 6.1-4.5 7.7 2 12.4 10.1 14.3 6.2 1.4 17.6 1.6 21.2 7.9 3.8 6.7-5.9 5.3-10.2 5.3-8 0-16-.6-24-.6.2.3.1.6-.1.9-3-1.5-10 .6-12.1-1.6-1.4-1.5.1-10.5.1-12.6 0-2.7.8-11.5-1.5-13.1.3-.4.6-.6 1.1-.6 0-1.7.6-14.1-.7-13.9-.6-1.2.6-3.6.8-5.1.3-2.4.9-10.7-1.5-12.2-2.2 3-.5 12.3-.5 15.7 0 1.7.1 15.9.8 15.5-1 1-.8 9.2-.7 9.2-.2-.1-.1 14-.1 14.5 0 3.9-1.2 3.5-5.2 3.7-2.6.1-5.3 0-7.9-.1-8.7-.2-17.2.1-25.9.3-3.8.1-5.1.5-6.1-3.4-.4-1.6 0-7.9-2.3-8.3.1.2.1.5 0 .7.7-.3.4-4.2.1-5.1 0 0-2-3.9-2-2 0 .5-4.9 1.7-6.5-.3-2.5-3.3 2.3-7.2.9-10.5.5-.1 2.4-.2 3.1-.2 1.7 0 3.5 1.9 5 1.7 4.1-.4 2.3-8.6 3.6-8.8zm85.6 36.9c0 .4-.1-1 0 0zm-30.1-.4c-.3.6.2-.7 0 0zm-11.7-8.9c-.8.2.8-.3 0 0zm0 .2c-.1.2 0 0 0 0zm.1-18c.5.2-.2-.2 0 0zm.3-14.3c.6-.2.1 0 0 0zm1-8.9c-.1-.2-.1-.4 0 0zm-27.5 49.5c.1.7 0-.5 0 0zm-.5 0c-.3.3-.3-.4 0 0zm-18.1.4c-.4.2 0 0 0 0zm-3.1-10.5c.1.7 0-.5 0 0zm-8.6-17.8c.4-.4.6.5 0 0zm12.5-6.9c0 .4 0-1.1 0 0zm-15.7-24.8c4 6-6 3.2-7.7 3.4 2.1-3.3 0-2.7 3.8-2.8.5 0 3.9-.6 3.9-.6zm-1.9-11.3c-.2 1.2 1.1 2.9 1.4 4.1.4 1.8.2 3.8.5 5.6-2.1-.8-3-.1-3.9 1.2-.6.9-2.7-2.8-2.8-3.2-1.4-2.9-1.4-6.3-3.2-9.3.6-.1 6.9-.5 6-2 .2-.1 2.1 3.1 2 3.6zm-3.1-3.6c.5 0 0 .7 0 0zm2 .2c.3-.1.5.2 0 0zm.7.2s.4.1 0 0zm-10.8-16.9c3.3.2 5.7 3.7 7.9 5.7 3 2.8 6.5 5 9.3 8-6.3 2.4-13.5 3.4-20.2 4 1.8-1.8.8-17.8 3-17.7zm-2.5 1.1c.2.3-.4.2 0 0zm-.2-.3c.4-.9-.1.6 0 0zm4.6-35.9c-.1.8.1-.5 0 0zm3.4-28.4c-.6.2.7-.3 0 0zm2.6-18c-.7.1.6 0 0 0zm5-8.6c.1-.4-.2.2 0 0zM252.8 2.1c-.2.2.2-.3 0 0zm-7 23.7c-.4-.2.4-.3 0 0zm.3-.3c-.8.2 0-.1 0 0zm2.2 28.7s.9-2.4 1-3.3c.4-2.3.8-4.3 1.5-6.7.4-1.4 2.7-11.2.2-11.6 3.1.5 2.9-11.8 1.8-14-1.3 2.5-1.1 5.5-1.5 8.2-.5 3.1-2 6.4-1.7 9.5-4-2.9-1.9-9.2-2.1-13.3-.2-3.3-1-6.5-1.4-9.8-.2-2.1-.9-4.7.3-6.4 1-1.4 7.3-2.7 7.6-4.3-.4.1-.6 0-.6-.4-.5.5 5.4 1 5.8.9.2 0 5.2 2.8 5.9 3.6 1.3 1.5 2.5 5.5 2.5 7.6 0 3.7-3.4 7.3-4.6 10.6-1.5 4.3-.6 9.4-4.7 12.4-.8-6.9 3.4-14.1.7-20.8-1.8 3.6-1.5 9.4-2.1 13.4-.6 4.6-1 9.2-1.5 13.8-.2 2.6-3.5 14.3-1.7 16-6.6 2.1-2.4-3.3-5.4-5.4zm3.2-16.6c0 .2 0-1 0 0zm-3.7 18c.6-.2-.2.1 0 0zm-5 28.7c.2-.1-.5.2 0 0zm-6 40c1.8-8.1 3.4-16.2 4.8-24.3.3-1.8 4-15.8 1.8-17 .1-.1-.5 1.4-.1.4.3-.7 2.4-7.5 1.5-7.5 2.7 0 .9-13.6 4.5-14.9 5.8-2.1 3.5 5.8 3.2 8.4-.2 1.3-.6 10.8-.1 10.1-3.2 3.2-2.2 12.4-2.8 16.8-.5 3.3-.2 7-1 10.4-1.1 5-2 9.4-2.2 14.7-.1 3.3.8 7.9-.4 11-.3.7-2 5.2-4.1 3.1-.6-5.7 4.1-13.1 1.4-18.6-2.1 3.3-2.3 10.6-2.6 14.5-.2 2.1.3 3.2-1.3 4.7-1.2 1.1-4.8.2-5.4.8.8-4.2 2-8.3 2.8-12.6zm5.4 12s-.7-.9 0 0zm-1.3.3c0 .3 0-.5 0 0zm-6.7.7c.2.2-.2-.3 0 0zm1.6-16.5c.3.3-.4.2 0 0zm-.1-.3c.2-.6-.1.2 0 0zm-14.5 1.8c.2-.8-.1.4 0 0zM208 132.9c.7.2-.2 0 0 0zm-10.7 24.9c-.1.7.1-.5 0 0zm7.3 25.6c.4-.6-.3.4 0 0zm0 .3c.2.4-.5 0 0 0zm-5.4 7.1c-.3.1-3.5-2.5-4-2.9 1.3-.6 1.2-2.6 1.8-3.7-1.3 2.6 7.3 2.6 8.7 1.2 2.7-2.5 3-10.2.7-13-3.5-4.3-8.6 1.4-8.7-5.5 0-2 2.2-9.3.1-10.4.4-.4-.8 1.5-.6.5.1-.3 1.2-1 1.2-1 .3-2 1-3.9 1-5.9 0-1.1 3.7-7.4 4.8-9.4 1.5-2.7 3.8-6.5 5.3-8.5 2.4-3.4 6.3-5.8 10.2-8.3 2.7-1.7 5.1-3.4 8-4.7 3-1.3 6.6-2.1 8.8-4.8 1.5 1.7-2.1 10.8-2.5 12.9-.2.9-2.1 14.2-4.3 11 .4.4-3.2.7-2.1 2.9.6 1.2 2.9.4 3.7 1.7-2.6 2.1-6.6 4.1-6.6 8 2-.5 8.2-5.1 9.5-6.7 2.3-2.7.6-4-3-3.8 1.9-.3 9.4-1.6 10.6-3.3.4-.5-1 .2-.5-.5-.5.9 7.8-.9 8.9-.7 4.3 1.1 5.1 8.1 4.5 11.9-.8 4.9-3.7 3.4-7.9 3.7-4.8.3-11.1 1.5-13.6 6.1 1.4-.4 2.8-1 4.1-1.6-.8 4.1-1 8-1.7 12.1-.1.8-1.7 12.3-1 12.1-2.9 1 .2 6.2-1.6 7.3-1.2.2-2.8 13.7-1.6 15.6 1.9-.6 3-9.9 3.2-11.6.2-1.8-.2-3.8.1-5.4.2-1.3 2.4-5.2-.2-5.2 2.7-.3 2.4-11.6 2.7-13.3.3-1.7 1.1-4.2 1.3-6.4.4-5 .7-5.4 5.3-6.8 1.1 4.2-1 9.4-1.5 13.6-.7 5.3-.8 10.7-1.3 16-.6 5.9-1.3 11.7-1.9 17.6-.2 1.5-.8 12.7-.3 12.1-3.1 3.1-1.4 10-2.1 14.1-.5 3.5-.4 6.2-1 10-.6 4-.2 7.7-5.2 7.1-7.2-.9-2.4-6.2-2.6-11.3-2.7 2.7-3.1 7.3-3.8 10.7-1.2-1.6-1.7.1-2.6-.9-1.6-1.8-.2-4.8-.7-6.9-1.7 2.3-.5 5.3-3.5 6.2-.7.2-4.9-1.7-4.5.2.2-.1-2.7-1-2.5-.5-.5-.9.2-.1.2-1.3 0-.8 3.2-6 1-6 0-1.5 2-4.4 2.4-7 .4-2.7-.3-3.9 2.4-2.9 1.7.7 3.6 4.7 4.2 6.5 1.7-5.9-12.7-15.4-14-12.7.8-2-6.4-4.9-7.8-4.9 2.3-1 3.3-6.9 4.2-8.5 1.5-2.7 5.2-6.8 9.2-5.5 3.3 1.1 7 5.7 9.8 7.8 4.2 3 7 6.8 10.5 10.9 0-2.3-1.9-3.6-2.1-5.8 3.4 1.7 6.8-3.8 1.1-5.4-5.1-1.4-11.2-1.2-10.7-8.1.2-2.3 5.9-20.9 3.6-20.9 1.4-.2 2.6-5.6 3.1-7.4.8-3 .2-6.1.8-8.1.6-2 1.9-4.3 2.3-6.5.3-2.1-.1-5.1 1.2-6.9 1.7-2.5 5.6-2.5 7.9-4.4-3.1-3.1-11.5 3.9-11.5 7.3.3-.1 1.5-1.1 1.6-1.1.8.4-6.5 27.1-5.1 26.6-3.1 1-.4 7-2.3 8-1.8.2-3.5 13.3-3.5 15.9-3.5-2.6-7.4-4.7-11.1-7-2.1-1.2-6.1-4.8-8.5-4.2zm33.2-47.7c0-.1.3.2 0 0zm.3 0c.2 0 .2.2 0 0zm1.7-1.5c0 .1.1-.2 0 0zm.1 1.8c.1.1-.1-.3 0 0zm19.3 8.6c.1.7 0-.5 0 0zm-.6 0c-.4.3-.3-.4 0 0zm-14.9 10c.1.4-.5-.9 0 0zm-.8-6.2c-.3.1.2 0 0 0zm-.9 13.5c-.5.1-.4-.2 0 0zm-2.1 11.6s-.3-.3 0 0zm-2.5 14.7c-.7.1.7-.2 0 0zm0 .1s-.2.2 0 0zm11.9-25.1c.1.6-.2-1.3 0 0zm-2.2 17.4c-.7.3-.3-.4 0 0zm-3.2 27.4c.4.1-.5-.2 0 0zM213.3 243c0 .7 0-.6 0 0zm-2.2-7.7c.6 0 .2 0 0 0zm2.5-5.8c0 .3-.5-.8 0 0zm-11.9-12.2c-.6.1-.3-.5 0 0zm-.5-.3c.1.2-.2-.8 0 0zm18.9-21.7c.2.3-.5.1 0 0zm-.2-.1c.4-.6-.2.3 0 0zm.3 9.9c-.3.9 0-.3 0 0zm.1.3c.3.2 0-.1 0 0zm4.8 2.2c.8.2.1.4 0 0zm1.5.3c2.5-.2 4.3 1.9 6.7 2.4-1-.2-3 1.4-3.6 2-1.4-1.4-2-3.6-3.9-4.5.2-.2.5-.1.8.1zm-2.7-28.9c-.4-.4.8.4 0 0zm3.1-13c0-.1.8 0 0 0zm2.8-8.1c-.1-.4 0-.1 0 0zm-38 45c.4-.1 1.5-3.3 2-4 1.4-1.8 4-4 6.4-4.3 3.5-.5 5.5 2 8.3 3.7-1 1.6-3.2 2.2-4.5 3.4-1.1 1-2.9 4.8-4.4 5-1.5.4-6.2-4.5-7.8-3.8zm-2.2 5.8c0-1.6 1-3 1.4-4.5 2.6 4.9 10.8 1.4 6.6 9-1.6-.7-7.7-2.3-8-4.5zm-19.8 1.7c-.2.2.2-.2 0 0zm-4.5 10.1c.8.1-.1 0 0 0zm-6.3 16c.5 0-.5 0 0 0zm-7.9 20.1c1.3 0-.9.4 0 0zm-.1.3c.2.3-.4 0 0 0zm-3.2 10c.2-.3-.4.6 0 0zm-6.9-31.2c0 .1 1-.3 0 0zm-49.1 11.5c.6-.7-.4.3 0 0zm-.3-.1c.4.4-.4.3 0 0zm30.9-30.8c-.5.9.1-.5 0 0zm-7.1-37.8c.1-.1-.7.3 0 0zm-5.6 7.5c.1-.7-.1.4 0 0zm-8.4 24.9c.7.3-.8-.2 0 0zm-15.1.1c.6-.2.5 0 0 0zm-13-7.8c.1-.5.2-1 .2-1.6 5.9 7.1 17.7 18.7 27.3 11 3.4-2.8 5.2-7.3 6.6-11.4.9-2.7 1.8-5.5 2.4-8.3 0 0 1.1-6.4-.3-5 2.8-2.8 1.4-8.7 1.5-12.2 0-1.4-1-7.6-.1-8.8.6 8.1 4.9 16.7 6.8 24.6 1 4 1.8 8.1 2.5 12.2.3 1.5 2.5 10.3 2.7 9.9-4.2 6.9-10.8 7-17.6 8.6-4 1-7.2 1.8-11.5 1.9-5.6.1-15.1.9-19-4.2-2.2-2.9-3.4-13-1.5-16.7zm2.9 18.9c1.1-.2-.8.1 0 0zm-.2 0c-.5 0-.1-.5 0 0zM54 195.3c.3-.1-1.1-3.8-1.5-4.2 5.3.2 10.1 1.1 14.6 4.2 2.1 1.4 8.8 6 3.9 5.3-2.5-.4-6.7-1.2-9-1.7-2.2-.6-5.7-4.5-8-3.6zm-4.7 63c-.8.3.9-.4 0 0zm2.9 18.1c-.5.4.6-.4 0 0zm5 27.8c1.2-1.1.4-4.8.2-6.2 3.3.5 7.2.3 10.5 0 3.3-.4 6.6-2.2 10-1.9-.3 1.8 0 3.7 0 5.5-2.7-1.6-7 .9-9.7 1.4-2.8.4-9.2-.6-11 1.2zm.2 1.1c-.4-.3 0 0 0 0zm-20.8 20.4c-.6 1 .5-.7 0 0zm18-3.5c-.5-.6.2.2 0 0zm19.6 6.7c-.9 1.1.6-1.2 0 0zm5.5-6.8c-1.4 1.2 0 3.5-1.7 4.9-1.4 1.2-4.8-.8-5.5 1.5.3-.1.5 0 .8.1 0-.1-2.8-.4-3.3-.9-.6-.6-1-1.9-1.2-2.7-1.1-2.2 3.9-6.6-2.5-7-4-.2-8.3 2.8-12.2 3.6-1.9.4-4 .9-6.4 1.6-2.9.8-6.1 1.1-9 1.8-1.1.2-6.4.3-7.3.9 5.2-3.1 10.3-6.4 15.6-9.4 3.3-1.8 9.3-3.5 11.4-6.8.7-1.2 0-4.5.4-5 1.1-1.2 4.6-.4 5.9-.3 4.8.3 8.6-1.6 13.3-1.7-.1 3.3 4.1 17.4 1.7 19.4zm0-25.6c.3.3-.4.3 0 0zm-.1.4c.5-.4-.8.4 0 0zm3.2-18.5c-.3-.2 1 .5 0 0zm33.7-17c-1.9 2.8-7.7 3.1-10.6 4.5-3.1 1.4-5.7 3.5-8.9 4.7-2.9 1-15.5 4.4-16.2 7.8.3-.2.7-.2 1-.2-.3-.4-10.7.1-10.7-.1 0-.9-4.1-2.8-5.4-3.9-2.9-2.6-4.6-5.8-5.6-9.5-.3-1-2.8-10.9-2.9-10.8.8-1.8.5-2.4.4-4.6-.2-2.8-.1-4.4.3-7.3.2-1.5 3.1-18 .8-18.3 2.5.4 2.2-6 2.5-7.9.6-3.7 2.1-7.4 1.6-11.2-3.9 6.8-4.6 16.8-5.8 24.5-1.1 7.2-1.4 14.8-1.1 22.2.4 14 5.9 30.2 22.8 28.9-1.5 2-1.8 12.4-.7 14.7-2.7-1.8-7.7 1.1-10.6 1.5-2.6.3-9-1.7-10.8.2 1.8-.4-3.6-20.1-4-22-.9-4.9-1.6-10-2.6-14.9-.7-3-1.5-6.1-2-9.1-.5-3.2 0-7.4-2-10.1 19.5-4.6 8.6-31.6 8.4-43.6 6.1.2 10.9 8.2 17.9 4.9-2.8 4.2-2 17.9 1.5 21.3 4.5 4.5 13.3 3.9 19.1 3.4-3.6 3.6-4.2 12.5-4.1 17.3.3 7.9 9.2 4.7 14.4 3.5 4.4-1 9.7-5 11.1.7.4 1.9 3.1 12.1 2.2 13.4zm-59-5.7c-.6.7-.3-.4 0 0zm1.5-25.2c0 .4-.5 0-.4-.4.1-.5.4.1.4.4zm-2.2-12c.2-.3.6.7.2.8-.1 0-.3-.7-.2-.8zm68.5 39.1c-1.3 2.2-5.4 2.2-7.4 3.5 2.9-4.9-8.4-15-.6-17.8 5.3-1.9 5 2.2 5.7 5.8.4 1.9 3.3 6.8 2.3 8.5zm4.3.8c-.4.5.4-.4 0 0zm.2.1c-.2-.4.3-.2 0 0zm9 7.3c-.1.3-.8-.5-.6-.5.1.1.8.2.6.5zm5.6 5.2c-.9-3.7-6.1-5.8-8.5-8.3-2.6-2.7-4.6-7.6-9.3-5.3-1.2-3.5-2.8-8.8-3.1-12.6-.1-2.5-1.1-2.9 2-3.8 2.2-.7 5.2-.3 7.7-1.1 2.8-.9 6.3-2.8 9.4-2.5-.3-.2-.5-.5-.6-.8.2-.9 2.8 10.2.8 8.1-.6-.9-5.5.4-6.1 2.2-.9 2.6 3.7 7.7 4.8 9.8 1.9 3.8 4.2 7.7 6 11.5.5 1.1 3.3 6.5 2.8 7.2-.2.5-5.7-3.5-5.9-4.4zm-6.1 22.4s-.2.2 0 0zm-6.1 16.5c.3-.4-.2.3 0 0zm-1.1-14.3c.5-.3-.6.2 0 0zm-5.4 1.8c.1-.1.2-.2 0 0zm3.4 4.9c-.5-1.2-1.4-6-3.1-6.3.2.4.1.6-.4.6.5.5.8-4.4.8-4.4.7-2.3 1.2-2.5 2.8-4.6-1 2.6.8 6 1.3 8.4.5 2.6 1.1 5.9 0 8.8-.5-.8-1-1.7-1.4-2.5zm1.6 3.4c-.1 0-.1-.3 0 0zm-25.3-1.9c-1.8-.2 1.4-.4 0 0zm34.6 21.4c-.8.6.4-.3 0 0zm.2-.3c-.4 0 0-.5 0 0zm2.8-6.5c.4 1.4-4 5.4-5.2 5.7-1.6.4-.3.4-2.4-.2-4.1-1.2-8.9-5.9-12.3-8.4-3.4-2.4-15.7-15-18.7-13.5.3.2.4.4.5.7.2-.4-2.1-2.6-2.3-3.1.1.1 2.3-.4 2.3-.5 0 1.6 19 7.4 21.9 8.6 1.2.5 3.5.7 4.5 1.3 1.4.9 2.8 3.1 4.3 4.2 1.8 1.4 6.6 3 7.4 5.2zm7.1-9.7c-2.6.6-3.1 5.1-4.9 6.6-3 2.3-5.1 0-7.6-2.5-7-7.1-1-8.7.3-16.6 2.1.7 9.9 13 12.2 12.5zm-5-7.1c0 .2.3-.6 0 0zm7.4 7.3c-.4.5.3-.7 0 0zm11.2-4.1c-.5-.2.6.1 0 0zm11.2-17c-1.2 0 .9-.3 0 0zm.1-.2c-.2-.4.5.1 0 0zm4.6-8.8c-3.1-.2-17 23.1-16.1 26.3-.8-1.5-2.8 3-3 3.2-.9 1.1-2.9 1.4-3.4 2.9.2-.8-2.8-2.5-3.3-2.8-.6-.4-1.7-.1-1.8-.1-.5-.3-.4-1.4-.9-1.7-.9-.8-1.3-1-2.1-1.9-1.4-1.4-2.5-3-4.1-4.4-3.6-3.1-6.8-4.3-5.4-9.6 1.4-5.2 6.4-10.9 5.7-16.5 3.6 2.8 7.1 3.4 5.6-2.4-.9-3.3-2-4.1-1.1-7.5.8-2.9 2.5-5.8 3.6-8.6 1.6-4 2.7-8.1 4.2-12.1.8-2.2 3.2-5.3 1.7-7.6.5 1.1 2.3-3.9 2.6-4.7.9-2.2 2.1-4.2 3-6.4.4-1.1 1.8-9.1 2.9-9.1 4 0 2.8-11.9 5-13.7 2.1-1.7 7.6 3.6 9.8 5.6-4.6 1.6-9.6 15.5-10.9 19.4-3.3 10.1-5.5 22.8-2 33.3.3-.2.6-.3.9-.2-1.8 3.6 2.5 8.3 4.1 11.3.6 1.4 5 6 5 7.3zm-3.7-56.9c-.2.5.2-1.1 0 0zm-5.5 15c-.6.2-.3-.4 0 0zm.4 25.1c.6-.4-.7.8 0 0zm20 24.5c-.1.7 0 .1 0 0zm.1.5c-.1-.4.4-.2 0 0zm14.9 12.6c-.5 0 0-.5 0 0zm9-39.6c-.2.4-.2.8-.1 1.2-1.5-.5-9.4-1.4-8.9.9.7 0-.6 11.7 1.3 12.4-.1-.3 0-.5.2-.7 0 2.3-1.4 4.5-.5 7.1-.4-.4-1.3 9.7-1.4 11-3.2-3.6-9.3-4-13.4-6.4-4.8-2.8-9.2-6.4-12.9-10.5-1.9-2.1-2.7-3.5-3.8-5.9-.5-1.2-2.8-8.1-4.5-8.2.2.4.2.6-.3.7.7.4-.6-6.4-.8-6.7-.1-.1.4-8.2.4-9.7.2-3 .1-6.8.4-9.4 0-.3.7-2.6.9-3.4.6-2.5 1.7-4.7 2.9-7.1 1.4-3 2.5-6.1 4.2-9 1.4-2.4 4.5-5 4.7-7.9 6.1 4.5 13.4 7.7 20.3 10.6 5.2 2.2 10.3 3.4 8.8 9.8-.5 2.2-2.1 10.9-3.7 12.1-3.2 2.5-8.2-2.6-11.3.5 1.6 1.9 6.3 1.4 8.5 2 .7.2 3.8.8 3.8.9-2.1 1.4 2.3 5.1 1 6.3.4 0 3.5 9.9 4.2 9.4zm-9.2-18.7c0 .7 0-.6 0 0zm4.2 3.4c.5-.1-.4.3 0 0zm3.7 11.9c-.6.3.6-.2 0 0zm.1.1c-.1.1-.3.2 0 0zm5-5.8c-1 .1-1.4 9.7-.9 10.7-1.9-.2-6.1-19-8-17.1.2-.3.5-.6.9-.7-.3 0-.5-.1-.6-.3 2.5 1.2 7.5.4 8.6 2.3.3.4-.4 5.1 0 5.1zm2.5 7.5c-.1 1.3-.2 2.7-.1 4-.8-.1-1.6-.3-2.4-.6 1.3-1.8.7-6.2.9-8.4.3-2.6 1.4-5.6 1.3-8.2 2.4 1 1.8-.2 2.6 2.3 1 3.2-2.5 7.4-2.3 10.9zm1.9 4c-.5 0-1.1-.1-1.6-.1 3-4.1 1.1-11.5 4.5-15.3.8-.8 5.8-1.7 6.4 0 .2-.1.5-.4 1.2.1-2.3 2.7-6.3 15.4-10.5 15.3zm9.8-13.1c-.1-.3 0 .3 0 0zm0 .3c-.2.2.2-.1 0 0zm-8.1 36.6c-.6.2-.2-.3 0 0zm2 29c-.7.2.7-.2 0 0zm.4.3c-1.5-3.6 6.7-2.9 8.5-2.9 3-.1 6.9-1.6 9.5-1.1-1.9 2.4.6 6-1.3 8.3-1.2 1.4-6.3 1.8-8 2-1.7.2-5.4 1.1-7 .6-1.5-.5-.8.6-1.7-1.4-.7-1.6.6-3.8 0-5.5zm5.9-4.5c.2-.4.2.4 0 0zm.2-.1c0-.1-.2.7 0 0zm5.9 10.4c.2.6-.2-.5 0 0zm-11.3 13.4c-.4.4.5-.5 0 0zm30.6.1c.3-.4-1 .3 0 0zm-8.7-17.8c.5.4 0 .4 0 0zm-1 2.1c.9-2.6 6.2-4 8.5-5 1.5-.7 8.6-3.2 8.5-3.5.7 1.1 1 1 1 2.2 0 2.4-6.3 3.6-6.3 4.2-.1 1.8-11.5 1.5-11.7 2.1zm6.9 3.6c-.2-.2-.1-.3 0 0zm-.2-.1c-.3 0-.1-.2 0 0zm-.3-.1c-.3.1 0-.1 0 0zm-.7.6c-.1-.2.2.6 0 0zm-.1-.1c-.4.2-.3-.5 0 0zm-1.3-1.6c0 .6 0-.4 0 0zm-4.6-2.3c.1 0-.2 0 0 0zm-.4.5c.5.2-.1 0 0 0zm-.3.1c.3-.1-.1.2 0 0zm-1.3 2.7c2.5.8 27.7 6.7 26.2 9.8-1.5 3.2-15-2.2-16.2 2.1.3 0 .6 0 .8.1-1.3-.7-7.8-.6-8.3-.1-3.9-2-10.8.2-15.1.1-.5 0-5.1 0-5.6-.6-.9-1.2.4-.5 0-1.5-1.1-3-2.1-7.3 1.3-8.5 2.1-.7 5.3-.3 7.5-.6 3.2-.7 6.5-1.8 9.4-.8zm2.3-12.6c-.2.1.2-.3 0 0zm7.4-4.6c-2.2 2.6 1.9 1.6-2.1 3.2-.3.1-5.7-.4-4.5 1.3-.9-1.3-22.4.6-22.8 2.2-.6-3.3.7-13.4-2-15.8 5.3 1.5 11.8.1 17-1.1 2.6-.6 12-5 13.3-3.7.2 0 1.2 13.9 1.1 13.9zm-17-11.5c.3-.4.3.3 0 0zm.3-.2c.2-.5-.3.6 0 0zm31.5-13.9c-.3.6.2-.5 0 0zm14.5-22.9c-.6.1.7-.1 0 0zm.3-6.6c0 6.1-2.4 11.9-5.6 17.1-1.6 2.6-3.4 5-5.4 7.3-.1.1-4 4-2.4 3.8-4 0-7.3 5.4-10.6 7.1-3.1 1.5-4.9 2.4-7.9 3.7-3.9 1.6-7.4 1.8-11.5 2.9-2.5.7-4.9 1.4-7.5 1.9-3.4.8-8.8-.3-11.6.9.2-.9 2.7-9.8 1.6-9.6 1.7-1.6 2.1-5.6 3.3-8.2.6-1.3 4.1-10.5 3-10.5.2-.3 1.1-.1 1.2-.6.2-1.4-6.1-2.7-7.2-2.9 1.7-3.8 8.6-14.1 12.1-14.9 3.2-.8 8.5 2 11.3.2-2-3.1-8.2-2.5-11.4-2.8 2.4-2.3.9-14.5 1.3-17.5.3-2.4 3.3-12.1.6-13.5 0 .3 0 .5-.2.7 1.5-.3 1.4-5.8 1-7.4.1.1 1.7-9.8 1.8-11.6.3-2.9-.3-6.8 0-9.2.8-7.9 2.2-17.2 2.8-25.8.4-5.7 0-8.1 5.9-7.5 6.5.7 12.9 1.6 19.4 2.3 1.4.1 6.3-.3 7.6.6 1.8 1.2 1.2 3.9 1.1 5.9-.2 3.2-.5 6.3-1.3 9.4-.5 2-2.2 4.9-1.3 7-5-4.9-10.9.5-11.6 5.7-.3 2.3-.3 5.5 1.5 7.3 1.3 1.3 6.7 2.6 7.5-.1-.3.9.9 5.1 1.5 4-2.1 4.2 1.3 10.1 2.2 14.2.7 3.2 1.6 5 3 8.3 1.6 3.6 1.9 6.9 3.1 10.7 2.7 7.1 2.2 13.4 2.7 21.1zm-55.3 20.5c-.1.4.2-1.1 0 0zm10.6-23.1c0 .9-.2-.8 0 0zm0 .1c.2-.3.1.6 0 0zm44-16.5c-.6.5.7-.7 0 0zm.1.2c0 .5 0-.4 0 0zm4.2 37.6c.1.2-.3-.8 0 0zm-1 10.8c0-.3.8-.1 0 0zm-.5 38.4c-.4-.2.3-.2 0 0zm.2-.2c-.7.2 0-.1 0 0zm.2-21.4c0 .5 0-.3 0 0zm.7 31.4c-.2 0 .4.1 0 0zm8 1.5c-2.4.4-1.2 2.9-4.5 2.3-2.6-.4-1.4-1.1-3.4-2.7 1-1.1 6.4.6 7.9.4zm.1-.5c.1-.1.3-.1 0 0zm.8-11c-.8.2 0-.1 0 0zm-.1.1c-.1.3 0 0 0 0zm.7-38.4c-.5.3-.3-.2 0 0zm.4-10.9c1 .5-.7 0 0 0zm-1.7-2.5c2.1 9.3 0 19.5 0 29h.9c-.7 1-1 10.8-.7 11 .6.2-.8 7.1-.9 7.8-.5 4.5.7 9 1.2 13.5-1.8 0-7.3 1.1-8.4 0-1.2-1.3-.1-8.7-.1-10.4 0-7 .9-14.4.4-21.2-.5-.2-.9-.1-1.4.2-.2-.1 1.1-.9 1.1-.8 0-5.8.1-12.9-.1-17.9-.1-2.2.2-2.9.6-5.3.6-4.3-1.7-9-.9-13.2 2.1 1.3 6 0 8.4.1-.2.5-.3 7-.1 7.2zm7.3-8.7c-.9.7.5-.4 0 0zm24.1 71.9c-2.4.4-1.2 2.9-4.5 2.3-2.6-.4-1.4-1.1-3.4-2.8 1.2-1.1 6.3.7 7.9.5zm.2-.5c0-.1.2-.1 0 0zm1.3-49.4c.1 0-.2 0 0 0zm23.7-21c-1.2 1.1.7-1.3 0 0zm26.4-1.8c-5 0-9.9 1.1-14.8.5-2-.2-12.6-2-13.4.6.1 0 1.3 0 .7.5-.6.4-8.1-2.5-8.1-.6 0-1.1-53.5-.5-58-.1.1-.2.4-2.6-.6-2.3 1.9-1.6 3.5-21.1 0-20.6 4.2-.5-6.6-23-7.1-25.8 3.9 2.3 9.8.2 14.1.4 6.1.3 12 .5 18.2.4 2.3 0 24.2 1.8 25.1-.9-.1 0-1.3 0-.7-.5.6-.4 8.1 2.5 8.1.6 0 1.7 18.2.3 20.8.4 5.2.1 11.9-.4 17.9.4 5.2.7 9.7 3.6 12.3 8.3 2.7 4.7 1 8.7 2.2 13.3 1.1 4.3 4.6 2.5 8.4 3.5 1.7.4 7.9 3.4 9.5 2.1 0-.1-1.1-.7-.3-.8.8-.3 4.5 6.9 5.6 5.8-1.1 1.6 4.2 8.5 3.8 11.6-.4 2.4-.6 2-2.3 3.1-.2.1-3.6.4-3.1 1.2-2.6-1.7-10.2-1-13.3-.8-8.6.7-16.7-.3-25-.3zm-92.9-17.9c.5-.4-.4.5 0 0zm132.5 19.4c-.6 0 .1-.8 0 0zm-19-.8c.2.7-.1-.7 0 0zm-1.5 3c.9 3.8-7.4 8.6-7.8 12.6-.5-.5-.6-9.5-.5-9.9 1-5.4 3.9-2.6 8.7-3.8-.1.3-.3.7-.4 1.1zm-8 8.5c.1.2-.2-.8 0 0zm-.1-10.2c-.1-.7 0 .5 0 0zm.5 0c.4-.3.3.4 0 0zm-1.1 20.8c0 .1-.6.1 0 0zm-9.7 0c-.1.1-.6.1 0 0zm-5.3 21.9c-.2-.2 4.4-5.7 5-6.1-.8 1.2.1 10-.8 10.4-.5-1.6-3.2-2.7-4.2-4.3zm-2.4 4.2c-.2.2.1-.1 0 0zm-11.5 4.8c.4.2-.2.8 0 0zm-17-1.4c-.4.5.3-.7 0 0zm21.8 11.8c-.9 3.7-3 1.1-5.1-.4-2.5-1.7-4.9-3.5-7.3-5.3-1.9-1.5-7.5-8-10-7.6-.5.1.2.7.2.8.1 1-.9-2 0-1.1-.4 0-.8-.2-1.1-.6.3-.3 2.1-.4 2.6-.5 2.1 0 8.2 3.1 11.2 4.1 3.4 1.1 7.3 2.4 10.6 2.4-1.3 2.6-.5 5.6-1.1 8.2zm1.6 6c-.7.3.8-.4 0 0zm.2.1c-.4.1 0-.4 0 0zm.1-4.3s-.6.8-.3 0c-.3.4-.7.8-1 1.3 1.3-1.8.1 0-.5-.2 1.9-2.3 3.5-8.3 1.5-10.9 2.4.8 6.3-7.8 6.9-9.5 1.3-.4 4.9 5.8 5 7.4.2 3.5-2.4 8.2-.4 11.8-1.1-1.2-11.2-1.8-11.2.1zm11.6 1.7c.2.1-.2 3 .2 3.5-2.9-.2-2.2 1.8-4.6 1.5-1.9-.2-6.1-3.1-7.2-4.5 2.5-.7 4.7-1.5 7.3-1.7 1.3.1 2.5.1 3.8-.1.4.5.5.9.5 1.3zm-.1-6.3c.4-.1.3.2 0 0zm.4-.1c-.7.2 0-.1 0 0zm.2-21.4c0 .5 0-.3 0 0zm.7 31.4c-.3 0 .4.1 0 0zm8 1.5c-2.4.4-1.2 2.9-4.5 2.3-2.6-.4-1.4-1.1-3.4-2.7 1-1.1 6.4.6 7.9.4zm.1-.5c.1-.1.3-.1 0 0zm.5-4.6c-.1 0 .1 3 .2 3.3-1.8 0-7.3 1.1-8.4 0-1.2-1.3-.1-8.7-.1-10.4.1-7 .9-14.4.4-21.2-.5-.2-.9-.1-1.4.2-.2-.1 1.1-.9 1.1-.8 0-5.4 0-12-.5-16.8-.5-5.6 2.4-13.1.2-19.3 1.3.2 7.8-.4 8.3 0 1.5 1.3-.2 9.1-.2 10.8 0 4.8.2 9.5.1 14.3 0 1-.1 11.5.8 10.8-.7 1-1 10.8-.7 11 1.7.5-2.9 16.6.2 18.1zm-8.2-55.4c0 .2-.3-.8 0 0zm8.1 49.1c.3-.1.3.2 0 0zm.4-.1c-.8.2 0-.1 0 0zm.2-21.4c0 .5 0-.3 0 0zm20.6 3.2c-3 0-6.3 5.1-8 7-3.5 3.9-7.2 7.5-11.1 11.2-1.9-1 0-19.2-.1-21.9-.5-.2-.9-.1-1.4.2-.2-.1 1.1-.9 1.1-.8 0-3.3-.1-6.2.1-9.6.1-2.4-1-5.9-.8-7.6.4-3.4 4.3-6.8 6-9.8 3-5.4 3.7-9.6 10.9-9.4-5.6 4.5-2.3 16.4-1.3 22.3.4 2.2 2.4 18.4 4.6 18.4zm-3.2-20.9c.2-.4-.6.7 0 0zm-.1-.3c0-.6 0 .5 0 0zm-4.2 54.6c-.6-.6.4-.4 0 0zm21.2-.5c-.9-.2.6.1 0 0zm1.1-2.1c-2.5-1.8-8.5.6-11.2.9-5.7.8-11.5-.1-17.2-.1.2-.2.1-.4-.1-.5 3-.5 5.7-3 8.3-4.4 3.5-1.9 7.2-3.3 10.8-5-.3-.2-.4-.5-.3-.8 3.8 0 4.3-.6 6.8 2.6 1.1 1.7 1.5 6.4 2.9 7.3zm-7.7-10.9c-.1-.5.1.3 0 0zm5.3 2c.1-.4.1-.3 0 0zm2.6 8.9c-.3.1 0-.1 0 0zm0-3.9c-.4.4.5-.3 0 0zm8.1 3.5c-.6 0 .5 0 0 0zm.4.2c0-1 .3-.1 0 0zm3.8-8.9c-1.9 1.9.7 5.4-1.6 7.5-1.7 1.6-6.3 1.1-8.4 1.4.5-.8.5-1.6-.1-2.3.2.3.5.5.8.7.2-1.2 1.9-5.5 2.5-5.3 0-1.6 2.5-3.4 4.1-4.6.7-.5 1.4-2.1 2-1.8.3.2 1.5 3.7.7 4.4zm-9.8 6c-.1-.1.2.3 0 0zm6-8.9c.4.4.1.3 0 0zm4-8.5c-.4 1 .3 3.4-.3 4.5-.8 1.5-3.7 1.8-5.2 3.1-.8.7-6.8 8.8-4.8 9.8-.2-.4-.1-.3.3.2-.4-.1-.7-.4-.8-.8-.4.8.3.4 0 .8-.2.2-.2-1.6-.2 1.1 0-.3-.1-.7-.1-1 .1 1.1-.2 1.2-.1 0v-.6c0 1.4-.1-.1-.1-.2v.1c-.1.6 0-.6-.1-.2.4-1.1-.3-.3-1.1-.7.1-.4.2-.7.3-1.1-.5-1.6-2.6-3.5-4.4-5.1-1.9-1.6-2.4-2.2-3.4-4.8-.6-1.8-1.1-5.3-2.3-6.8 8.8 1.6 14-1 21.8-4.2-.1 1.7 1.2 4.2.5 5.9zm0-18.6c.4.1-.4-.1 0 0zm13.7-23c-.7-.5.2-.5 0 0zm1.5 28.4c-.5.2-.4-.2 0 0zm.7-28.7c-.3.8-.6-.2-.7-.2.2-.1.8-.2.7.2zm.6 0c.4-.3.7-.4.9-.1-.2 0-.6 0-.9.1zm1.6-.1c0-.1.6-.1 0 0zm2.4 14.4c0-.2.1.1 0 0zm.3-15.6s.5-.1 0 0zm19.9 14.6c0 .1-1.1-.2-.5-.3.1 0 1-.2.5.3zm.8 0c.2-.3-.3.3 0 0zm2.6-17.5c-.6 0 .4 0 0 0zm.4.2c-.1-1.1.2-.1 0 0zm2.8 31.6c.3 0-.9 0 0 0zm11.6-66.4c-3.7 14-.4 33.1-20.1 34.3-10.5.7-21.8 1.7-32.1 4.5-11.2 3-7.7 11.7-7.7 20.9.3-.2.6-.2.9 0-4.1 5.5 3 12.3-4.9 15.5-3 1.2-6.4 2.2-9.6 2.4-2.4.1-6.1-1.1-8.3.3-.3-2.5-1.8-4.5-2.7-6.8-1.2-3-1.6-6.2-2.2-9.4-1.5-7.8-3.2-15.6-3.7-23.5-.1-2-.9-7.1 1.2-8.6 1.8-1.3 8.3.5 10.5.4 11.6-.4 5.6-10.1 3.2-16.6 3 0 5.9-2.8 8.5-4 4.5-2.1 10.1-4.8 15-5.2 4.6-.3 9.2.8 13.8 1 .7 0 9.5-.8 8.2-1.5 4.3 2.2 5.5-3.2 8.5-3.8 2.4-.5 6.2 1.1 8.6 1.4 1.9.1 12.6.1 12.9-1.3zm.9-1.3c0 1.1-.2-.5 0 0zm.3-2.3c-.3.4-1 2.3-1.2 2.3-3.5-1.5-7.6.8-11.2.8-2.8 0-6.8-2.1-9.5-.8 0-1.5 3.2-3.5 2.4-4.6-.5-.7 3.4-9.3 3.9-10.8 1.4-5.1 2.3-15-.2-19.7-2.1 4.2 1.4 14.5-2.5 16.1-1.7.7-8.3 0-10.4-.2-3.5-.4-7.8-3.1-11.4-1.8.3-.5.4-2.1.7-2.8.5-1.4 1.6-2.8 2-4.5.8-3.3 2.4-10 .8-13.2-2.8 3.2-2.5 12.1-3.8 16.3-1.6 5.5-4.9 9.2-10.8 10.3-10.3 1.9 1.4-15.8-2.7-15.8 1.6.1 1.6-1.4 1.2-2.2 1.4 1.4 1.7-6.7 1.7-6.7.5-.1.9-.3 1.2-.7-.1-.4-.4-.6-.8-.8.9-1.9 1.3-3.6 1.8-5.5 1-3.5 2.4-5 5-2.8 3.2 2.6 3.7 6.6 8.5 3.1 1.8-1.3 4.2-4.2 2.6-6.2.7 1.4 1.3-3.3 1.3-3.4.2-1.5.9-2.7.2-4.3 11.7 1.5 20.6 11.4 25.2 21.7 2.5 5.7 3.9 11.8 4.8 17.9.5 3.6.7 7 .7 10.6-.1 1 0 8.4.5 7.7zm-15.8-18.2c.6-.3-.9.3 0 0zm-.1-.3c.3-.5-.1.4 0 0zm-21.7-8.8c0 .2 0-.8 0 0z" fill="#222525"/></svg>