<?xml version="1.0" encoding="UTF-8"?>
<svg xmlns="http://www.w3.org/2000/svg" xmlns:xlink="http://www.w3.org/1999/xlink" width="64px" height="64px" viewBox="0 0 64 64" version="1.1">
<g id="surface215836">
<path style=" stroke:none;fill-rule:nonzero;fill:rgb(10, 128, 128);fill-opacity:1;" d="M 32 1 C 27.710938 1 23.921875 3.480469 21.222656 7.011719 C 9.140625 9.460938 2 16.289062 2 26.019531 C 2 30.300781 3.339844 34.800781 5.722656 38.949219 C 5.742188 39.460938 5.832031 40 5.980469 40.570312 C 6.75 43.441406 8.871094 45.96875 11.070312 46.742188 C 12.820312 52.308594 16.820312 56.921875 22.109375 59.421875 L 26.429688 61.472656 C 28.199219 62.3125 30.101562 62.730469 32 62.730469 C 33.898438 62.730469 35.800781 62.3125 37.558594 61.472656 L 41.410156 59.652344 C 46.246094 57.363281 49.960938 53.34375 51.910156 48.429688 C 51.9375 48.382812 51.96875 48.339844 51.988281 48.289062 C 52.183594 47.792969 52.351562 47.285156 52.507812 46.773438 C 52.507812 46.773438 52.507812 46.773438 52.507812 46.769531 C 55.078125 46.179688 57.339844 43.191406 58.066406 40.460938 C 58.21875 39.902344 58.308594 39.371094 58.328125 38.859375 C 60.679688 34.738281 62 30.269531 62 26.019531 C 62 16.289062 54.859375 9.460938 42.777344 7.011719 C 40.078125 3.480469 36.289062 1 32 1 Z M 32 3 C 34.859375 3 37.5 4.371094 39.640625 6.480469 C 37.25 6.160156 34.699219 6 32 6 C 29.300781 6 26.75 6.160156 24.359375 6.480469 C 26.5 4.371094 29.140625 3 32 3 Z M 32 8 C 35.230469 8 38.511719 8.269531 41.640625 8.871094 C 42.582031 9.039062 43.5 9.242188 44.402344 9.480469 C 53.121094 11.761719 60 16.847656 60 26.019531 C 60 29.5 59.171875 32.832031 57.742188 35.882812 C 57.011719 34.511719 55.730469 33.621094 54.3125 33.242188 C 53.339844 32.980469 52.378906 32.960938 51.492188 33.191406 L 50.53125 28.820312 C 50.25 27.582031 49.222656 26.640625 47.972656 26.492188 L 44.5625 26.0625 C 39.210938 25.390625 34.109375 23.328125 29.800781 20.101562 L 28.601562 19.199219 C 28.199219 18.898438 27.640625 18.9375 27.289062 19.289062 L 25.382812 21.210938 C 22.839844 23.75 19.652344 25.511719 16.152344 26.300781 L 15.480469 26.460938 C 14.371094 26.710938 13.480469 27.589844 13.222656 28.6875 L 12.347656 32.390625 L 12.152344 33.21875 C 11.371094 33.089844 10.550781 33.128906 9.742188 33.347656 C 8.320312 33.730469 7.03125 34.628906 6.320312 36 C 4.851562 32.910156 4 29.550781 4 26.019531 C 4 16.847656 10.878906 11.761719 19.597656 9.480469 C 20.5 9.242188 21.417969 9.039062 22.359375 8.867188 C 25.488281 8.269531 28.769531 8 32 8 Z M 32 10.863281 C 31.445312 10.863281 31 11.3125 31 11.863281 C 31 12.414062 31.445312 12.863281 32 12.863281 C 36.148438 12.863281 39.886719 13.375 43.109375 14.378906 C 43.207031 14.410156 43.308594 14.425781 43.40625 14.425781 C 43.832031 14.425781 44.226562 14.148438 44.363281 13.722656 C 44.523438 13.191406 44.230469 12.632812 43.703125 12.46875 C 40.289062 11.402344 36.351562 10.863281 32 10.863281 Z M 25.390625 11.453125 C 24.839844 11.453125 24.394531 11.898438 24.390625 12.449219 L 24.378906 14.386719 C 24.375 14.941406 24.820312 15.390625 25.371094 15.394531 L 25.378906 15.394531 C 25.929688 15.394531 26.375 14.949219 26.378906 14.398438 L 26.390625 12.460938 C 26.394531 11.910156 25.949219 11.457031 25.394531 11.453125 Z M 20.210938 12.125 C 20.085938 12.105469 19.949219 12.109375 19.816406 12.140625 C 19.28125 12.269531 18.949219 12.808594 19.078125 13.347656 L 19.53125 15.230469 C 19.640625 15.6875 20.054688 15.996094 20.503906 15.996094 C 20.582031 15.996094 20.660156 15.984375 20.738281 15.96875 C 21.273438 15.835938 21.605469 15.296875 21.476562 14.757812 L 21.023438 12.878906 C 20.925781 12.476562 20.597656 12.1875 20.210938 12.125 Z M 47.335938 13.988281 C 46.945312 13.957031 46.558594 14.15625 46.367188 14.527344 C 46.113281 15.015625 46.308594 15.617188 46.796875 15.875 C 47.648438 16.316406 48.4375 16.808594 49.148438 17.339844 C 49.328125 17.472656 49.539062 17.539062 49.75 17.539062 C 50.054688 17.539062 50.355469 17.402344 50.550781 17.140625 C 50.882812 16.695312 50.789062 16.070312 50.351562 15.738281 C 49.550781 15.140625 48.667969 14.589844 47.71875 14.097656 C 47.597656 14.035156 47.464844 14 47.335938 13.988281 Z M 14.988281 14.25 C 14.855469 14.257812 14.726562 14.292969 14.605469 14.359375 C 14.117188 14.613281 13.925781 15.21875 14.183594 15.707031 L 15.066406 17.40625 C 15.246094 17.746094 15.59375 17.941406 15.953125 17.941406 C 16.109375 17.941406 16.269531 17.90625 16.417969 17.828125 C 16.90625 17.570312 17.097656 16.96875 16.84375 16.480469 L 15.953125 14.78125 C 15.761719 14.414062 15.375 14.214844 14.984375 14.25 Z M 10.828125 17.707031 C 10.574219 17.695312 10.3125 17.78125 10.109375 17.964844 C 9.699219 18.335938 9.667969 18.96875 10.035156 19.375 L 11.296875 20.769531 C 11.496094 20.992188 11.765625 21.101562 12.039062 21.101562 C 12.277344 21.101562 12.519531 21.015625 12.710938 20.84375 C 13.121094 20.472656 13.152344 19.839844 12.78125 19.429688 L 11.523438 18.035156 C 11.335938 17.832031 11.085938 17.71875 10.832031 17.707031 Z M 28.089844 21.316406 L 28.601562 21.699219 C 33.191406 25.140625 38.621094 27.339844 44.308594 28.046875 L 47.71875 28.46875 C 48.140625 28.519531 48.480469 28.839844 48.570312 29.246094 L 49.445312 33.199219 C 49.445312 33.207031 49.445312 33.210938 49.445312 33.214844 L 50.4375 37.714844 C 50.539062 38.183594 50.953125 38.5 51.410156 38.5 C 51.484375 38.5 51.558594 38.492188 51.628906 38.476562 C 52.167969 38.359375 52.507812 37.824219 52.390625 37.285156 L 51.921875 35.152344 C 52.5 34.992188 53.136719 34.992188 53.792969 35.167969 C 55.441406 35.621094 56.339844 36.789062 56.351562 38.4375 C 56.347656 38.910156 56.28125 39.410156 56.140625 39.9375 C 55.652344 41.777344 54.382812 43.515625 53.09375 44.347656 C 53.167969 43.9375 53.230469 43.523438 53.28125 43.105469 C 53.34375 42.558594 52.953125 42.0625 52.402344 41.996094 C 51.851562 41.933594 51.359375 42.328125 51.292969 42.875 C 51.1875 43.800781 51.003906 44.707031 50.761719 45.601562 L 50.761719 45.609375 C 50.453125 46.757812 50.042969 47.871094 49.519531 48.917969 L 49.511719 48.929688 C 47.660156 52.808594 44.511719 55.96875 40.5625 57.839844 L 36.710938 59.660156 C 33.710938 61.082031 30.28125 61.082031 27.292969 59.660156 L 22.972656 57.609375 C 18.929688 55.699219 15.730469 52.449219 13.882812 48.460938 C 13.460938 47.5625 13.109375 46.621094 12.832031 45.648438 C 12.730469 45.289062 12.429688 45.019531 12.0625 44.9375 C 10.441406 44.621094 8.539062 42.378906 7.910156 40.050781 C 7.769531 39.5 7.699219 38.988281 7.699219 38.519531 C 7.71875 36.890625 8.621094 35.71875 10.261719 35.277344 C 10.589844 35.1875 10.921875 35.148438 11.242188 35.148438 C 11.390625 35.148438 11.539062 35.171875 11.683594 35.191406 L 10.835938 38.769531 C 10.707031 39.308594 11.042969 39.84375 11.578125 39.972656 C 11.65625 39.992188 11.734375 40 11.8125 40 C 12.261719 40 12.671875 39.691406 12.78125 39.230469 L 14.632812 31.414062 L 15.171875 29.148438 C 15.25 28.777344 15.550781 28.488281 15.921875 28.410156 L 16.59375 28.25 C 20.460938 27.378906 23.992188 25.429688 26.792969 22.621094 Z M 32 34 C 29.792969 34 28 35.792969 28 38 L 28 38.183594 C 27.6875 38.070312 27.351562 38 27 38 L 21 38 C 19.347656 38 18 39.347656 18 41 L 18 42 C 18 45.308594 20.691406 48 24 48 C 27.308594 48 30 45.308594 30 42 L 30 38 C 30 36.898438 30.898438 36 32 36 C 33.101562 36 34 36.898438 34 38 L 34 42 C 34 45.308594 36.691406 48 40 48 C 43.308594 48 46 45.308594 46 42 L 46 41 C 46 39.347656 44.652344 38 43 38 L 37 38 C 36.648438 38 36.3125 38.070312 36 38.183594 L 36 38 C 36 35.792969 34.207031 34 32 34 Z M 21 40 L 27 40 C 27.550781 40 28 40.449219 28 41 L 28 42 C 28 44.207031 26.207031 46 24 46 C 21.792969 46 20 44.207031 20 42 L 20 41 C 20 40.449219 20.449219 40 21 40 Z M 37 40 L 43 40 C 43.550781 40 44 40.449219 44 41 L 44 42 C 44 44.207031 42.207031 46 40 46 C 37.792969 46 36 44.207031 36 42 L 36 41 C 36 40.449219 36.449219 40 37 40 Z M 30 55 C 29.445312 55 29 55.449219 29 56 C 29 56.550781 29.445312 57 30 57 L 34 57 C 34.554688 57 35 56.550781 35 56 C 35 55.449219 34.554688 55 34 55 Z M 30 55 "/>
</g>
</svg>
