<svg fill="none" height="50" width="51" xmlns="http://www.w3.org/2000/svg"><g stroke="#f45d48" stroke-linecap="round" stroke-linejoin="round" stroke-width="1.9"><path d="m49.177 42.456c0-4.553-6.974-8.234-11.528-8.234l-1.647-4.94m-3.293-23.055c5.46 0 8.63 4.57 9.88 9.88.429 1.787 3.294 6.588 3.294 6.588-1.647 3.293-5.895 6.587-13.174 6.587m-13.174 3.293c4.553 0 8.02-5.335 8.02-9.88 1.646 0 2.264-.742 2.264-1.647v-3.294c0-.914-1.647-1.647-1.647-1.647v-3.293c4.117-4.94-4.117-9.88-10.704-4.94-6.587 0-7.41 2.206-7.41 4.94v3.293s-1.647.733-1.647 1.647v3.294c0 .905 1.029 1.647 2.684 1.647 0 4.536 3.903 9.88 8.44 9.88z"/><path d="m1.823 43.7v-1.244c0-4.52 4.117-6.99 8.654-6.99h2.47l2.396-4.299m21.063 12.533v-1.244c0-4.52-3.129-6.99-7.682-6.99h-2.47l-2.882-4.299"/></g></svg>